<svg width="100" height="100" viewBox="0 0 100 100" fill="none" xmlns="http://www.w3.org/2000/svg">
<g clip-path="url(#clip0_3_18)">
<path d="M86.1153 82.3195C44.841 101.963 19.2257 85.5278 2.82854 75.5457C1.81389 74.9165 0.0893421 75.6927 1.58563 77.4114C7.04834 84.0351 24.9508 100 48.3187 100C71.7027 100 85.614 87.2406 87.3543 85.0148C89.0827 82.8078 87.8622 81.5904 86.1153 82.3195ZM97.7071 75.9179C96.5987 74.4745 90.9673 74.2055 87.4233 74.6408C83.8738 75.0636 78.546 77.233 79.0092 78.5355C79.2469 79.0234 79.732 78.8045 82.1704 78.5853C84.6154 78.3413 91.465 77.4769 92.8923 79.3427C94.3262 81.2213 90.7077 90.1708 90.0468 91.6141C89.4083 93.0575 90.2907 93.4297 91.4901 92.4684C92.673 91.5075 94.8145 89.0189 96.2516 85.4972C97.6788 81.9563 98.5495 77.0168 97.7071 75.9179Z" fill="#FF9900"/>
<path fill-rule="evenodd" clip-rule="evenodd" d="M58.3628 42.238C58.3628 47.392 58.493 51.6902 55.888 56.2673C53.7853 59.989 50.4547 62.2776 46.7334 62.2776C41.6535 62.2776 38.695 58.4072 38.695 52.6951C38.695 41.419 48.7984 39.3725 58.3628 39.3725V42.238ZM71.7039 74.4839C70.8293 75.2652 69.564 75.3213 68.578 74.8001C64.1868 71.1533 63.4051 69.4601 60.9863 65.9804C53.7296 73.3861 48.594 75.6002 39.179 75.6002C28.052 75.6002 19.381 68.7341 19.381 54.9836C19.381 44.2476 25.2053 36.9349 33.4849 33.3626C40.6675 30.199 50.6967 29.6409 58.3628 28.7667V27.0547C58.3628 23.9099 58.6044 20.1887 56.7626 17.4722C55.1436 15.0346 52.0549 14.0298 49.3381 14.0298C44.2958 14.0298 39.7928 16.616 38.695 21.9748C38.4715 23.1659 37.5972 24.3382 36.4065 24.3939L23.5675 23.0173C22.4885 22.7749 21.2977 21.9007 21.5954 20.2443C24.5539 4.68927 38.6017 0 51.1799 0C57.618 0 66.0282 1.712 71.1081 6.58718C77.5462 12.597 76.932 20.6166 76.932 29.3432V49.9598C76.932 56.1559 79.4998 58.8724 81.9186 62.2219C82.7744 63.4126 82.9607 64.8458 81.8813 65.7384C79.1833 67.9897 74.3827 72.1766 71.7407 74.5212L71.7039 74.4839Z" fill="black"/>
<path d="M86.1153 82.3195C44.841 101.963 19.2257 85.5278 2.82854 75.5457C1.81389 74.9165 0.0893421 75.6927 1.58563 77.4114C7.04834 84.0351 24.9508 100 48.3187 100C71.7027 100 85.614 87.2406 87.3543 85.0148C89.0827 82.8078 87.8622 81.5904 86.1153 82.3195ZM97.7071 75.9179C96.5987 74.4745 90.9673 74.2055 87.4233 74.6408C83.8738 75.0636 78.546 77.233 79.0092 78.5355C79.2469 79.0234 79.732 78.8045 82.1704 78.5853C84.6154 78.3413 91.465 77.4769 92.8923 79.3427C94.3262 81.2213 90.7077 90.1708 90.0468 91.6141C89.4083 93.0575 90.2907 93.4297 91.4901 92.4684C92.673 91.5075 94.8145 89.0189 96.2516 85.4972C97.6788 81.9563 98.5495 77.0168 97.7071 75.9179Z" fill="#FF9900"/>
<path fill-rule="evenodd" clip-rule="evenodd" d="M58.3628 42.238C58.3628 47.392 58.493 51.6902 55.888 56.2673C53.7853 59.989 50.4547 62.2776 46.7334 62.2776C41.6535 62.2776 38.695 58.4072 38.695 52.6951C38.695 41.419 48.7984 39.3725 58.3628 39.3725V42.238ZM71.7039 74.4839C70.8293 75.2652 69.564 75.3213 68.578 74.8001C64.1868 71.1533 63.4051 69.4601 60.9863 65.9804C53.7296 73.3861 48.594 75.6002 39.179 75.6002C28.052 75.6002 19.381 68.7341 19.381 54.9836C19.381 44.2476 25.2053 36.9349 33.4849 33.3626C40.6675 30.199 50.6967 29.6409 58.3628 28.7667V27.0547C58.3628 23.9099 58.6044 20.1887 56.7626 17.4722C55.1436 15.0346 52.0549 14.0298 49.3381 14.0298C44.2958 14.0298 39.7928 16.616 38.695 21.9748C38.4715 23.1659 37.5972 24.3382 36.4065 24.3939L23.5675 23.0173C22.4885 22.7749 21.2977 21.9007 21.5954 20.2443C24.5539 4.68927 38.6017 0 51.1799 0C57.618 0 66.0282 1.712 71.1081 6.58718C77.5462 12.597 76.932 20.6166 76.932 29.3432V49.9598C76.932 56.1559 79.4998 58.8724 81.9186 62.2219C82.7744 63.4126 82.9607 64.8458 81.8813 65.7384C79.1833 67.9897 74.3827 72.1766 71.7407 74.5212L71.7039 74.4839Z" fill="black"/>
</g>
<defs>
<clipPath id="clip0_3_18">
<rect width="100" height="100" fill="white"/>
</clipPath>
</defs>
</svg>
