<svg width="100" height="100" viewBox="0 0 100 100" fill="none" xmlns="http://www.w3.org/2000/svg">
<path d="M87.7218 34.0934C87.1425 34.5435 76.9139 40.314 76.9139 53.1453C76.9139 67.9868 89.9294 73.2373 90.3189 73.3673C90.259 73.6874 88.2513 80.5581 83.4566 87.5588C79.1814 93.7194 74.7164 99.87 67.924 99.87C61.1316 99.87 59.3836 95.9196 51.5424 95.9196C43.9009 95.9196 41.184 100 34.9709 100C28.7579 100 24.4227 94.2994 19.4383 87.2987C13.6648 79.0779 9 66.3066 9 54.1854C9 34.7435 21.6259 24.4324 34.0519 24.4324C40.6546 24.4324 46.1584 28.7729 50.3037 28.7729C54.2493 28.7729 60.4024 24.1724 67.914 24.1724C70.7608 24.1724 80.9894 24.4324 87.7218 34.0934ZM64.348 15.9416C67.4545 12.2512 69.6521 7.13071 69.6521 2.0102C69.6521 1.30013 69.5921 0.580058 69.4623 0C64.4079 0.190019 58.3947 3.37034 54.7687 7.58076C51.9219 10.8211 49.2649 15.9416 49.2649 21.1321C49.2649 21.9122 49.3948 22.6923 49.4547 22.9423C49.7743 23.0023 50.2938 23.0723 50.8132 23.0723C55.3481 23.0723 61.0517 20.032 64.348 15.9416Z" fill="black"/>
</svg>
