<svg width="100" height="100" viewBox="0 0 100 100" fill="none" xmlns="http://www.w3.org/2000/svg">
<path d="M73.4837 41.7702L73.3775 41.809C73.3775 41.809 70.2299 42.9943 70.5701 47.1046L79.498 42.3833C77.6755 41.6738 75.5245 41.2248 73.4837 41.7702Z" fill="#E62435"/>
<path d="M73.4844 41.7712C75.5245 41.2246 77.6755 41.6738 79.498 42.3833C82.0694 43.3902 83.9789 44.9135 83.9789 44.9135C87.4116 38.3371 98.8558 32.9551 98.8558 32.9551L98.8456 32.9274L73.5027 41.7535C73.5027 41.7535 73.3952 41.7923 73.351 41.8188L73.4844 41.7712Z" fill="#F99E1D"/>
<path d="M24.0539 47.8139L99.3816 32.7122L99.4592 32.6955C99.4714 32.6867 99.4871 32.66 99.4871 32.64C99.4871 32.6246 99.4714 32.6068 99.468 32.5912H47.6045C47.6045 32.5912 51.8291 33.3242 55.222 34.3996C57.6258 35.1647 59.5329 36.1294 59.3755 37.307C59.1161 38.5099 57.3896 38.9501 56.4782 39.2374L23.6846 47.368C23.6846 47.368 23.3997 47.4369 23.4795 47.6697C23.5461 47.8892 23.9384 47.8249 24.0539 47.8139Z" fill="#2A2F7E"/>
<path fill-rule="evenodd" clip-rule="evenodd" d="M6.9332 61.4458L9.38041 57.9055L11.6356 61.4458H6.9332ZM8.5498 54.2952L0 66.8933C0 66.8933 3.41614 66.5218 5.04498 64.1823L5.66475 63.2742H12.801L13.7756 64.8032C14.768 66.3811 18.855 66.8933 18.855 66.8933L10.2186 54.2952H8.5498Z" fill="black"/>
<path fill-rule="evenodd" clip-rule="evenodd" d="M35.8356 59.5646C35.156 59.8262 34.0682 59.9571 32.5892 59.9571C32.2532 59.9571 31.7509 59.9394 31.0955 59.9005V56.5597H34.8567C36.4565 56.5597 36.8612 57.438 36.8612 58.0488C36.8612 58.7984 36.522 59.2995 35.8356 59.5646ZM39.5048 60.0812C40.2044 59.477 40.5503 58.8072 40.5503 58.0722C40.5503 55.6373 38.0201 54.4818 32.944 54.4818H27.6905V66.9613H31.0956V61.771C32.0569 61.8088 32.8121 61.8197 33.3443 61.8287L36.5265 64.9343C38.1698 66.9047 42.7756 66.9613 42.7756 66.9613L36.8559 61.3663C37.9258 61.1124 38.8052 60.6856 39.5048 60.0812Z" fill="black"/>
<path d="M79.1574 54.4712H75.6082V66.8919H79.1574V54.4712Z" fill="black"/>
<path d="M99.5395 62.1285C99.2231 61.6683 98.7776 61.2648 98.1796 60.9221C97.5925 60.5829 96.6252 60.2115 95.2966 59.7967C92.7544 59.0317 91.4918 58.2833 91.4918 57.5659C91.4918 57.1333 91.7163 56.7842 92.166 56.5158C92.6102 56.2498 93.2422 56.1111 94.0599 56.1111C95.0973 56.1111 96.083 56.2952 97.0544 56.5834C97.9857 56.8641 99.0667 55.0555 99.0667 55.0555C97.9959 54.509 96.298 54.245 93.9884 54.245C92.2197 54.245 90.7728 54.5567 89.6408 55.1986C88.5068 55.8306 87.9469 56.6323 87.9469 57.6001C87.9469 58.108 88.0898 58.5805 88.368 59.004C88.6531 59.4375 89.0673 59.8012 89.5918 60.1062C90.1265 60.4121 91.1544 60.8014 92.6878 61.2825C94.2184 61.7605 95.2238 62.1939 95.7184 62.5797C96.2041 62.9712 96.4449 63.3803 96.4449 63.8083C96.4449 64.712 95.4102 65.1643 93.3367 65.1643C92.3898 65.1643 91.4497 64.9848 90.4694 64.712C89.0844 64.3372 87.9102 66.2199 87.9102 66.2199C89.415 66.8254 91.0946 67.1248 92.9551 67.1248C95.0973 67.1248 96.8061 66.801 98.0775 66.149C99.3551 65.4959 100 64.6622 100 63.652C100 63.0943 99.8388 62.5898 99.5395 62.1285Z" fill="black"/>
<path fill-rule="evenodd" clip-rule="evenodd" d="M61.0505 58.0488C61.0505 58.7962 60.7068 59.2995 60.0214 59.5646C59.3363 59.8262 58.2586 59.9571 56.7816 59.9571C56.4324 59.9571 55.9333 59.9394 55.2837 59.9005V56.5597H59.0414C60.6393 56.5597 61.0505 57.4402 61.0505 58.0488ZM63.6882 60.0812C64.3923 59.4803 64.7382 58.8061 64.7382 58.0687C64.7382 55.6373 62.2035 54.4818 57.1275 54.4818H51.8741V66.9602H55.2836V61.7732C56.246 61.8088 56.9899 61.8197 57.5289 61.8287L60.7122 64.9378C62.3531 66.9047 66.9603 66.9602 66.9603 66.9602L61.0471 61.3663C62.1082 61.1124 62.9909 60.6856 63.6882 60.0812Z" fill="black"/>
</svg>
