<svg width="100" height="100" viewBox="0 0 100 100" fill="none" xmlns="http://www.w3.org/2000/svg">
<path d="M30.4924 39C27.9413 39.1589 26.8344 40.3855 26.0039 41.2568C25.1139 42.1867 24.6192 44.1452 24.6192 44.1452V39.0399H14.6732C13.9217 39.0399 13.2094 39.3562 12.6755 40.1084C12.1221 40.8411 9.84814 44.6008 9.84814 44.6008H49.1796V39H30.4924ZM80.0078 39C77.4771 39.1589 76.3499 40.3855 75.5194 41.2568C74.6294 42.1867 74.1346 44.1452 74.1346 44.1452V44.6008H100V39H80.0078ZM50.1479 39.0204V44.6008H55.7448V39.0204H50.1479ZM68.4994 39.0204V44.6008H74.0751V39.0204H68.4994ZM9.61018 44.9374L0 60.0568H6.56517L15.82 45.6098L9.61018 44.9374ZM50.2074 45.0164V53.1573C50.1988 52.9906 50.1879 52.7542 50.1879 52.7542C50.0493 51.9229 48.4673 48.2423 45.0661 47.9252C43.0294 47.7272 24.8963 46.283 24.8963 46.283C25.2524 48.1037 26.0634 49.0337 26.6168 49.5479C27.8826 50.755 29.8795 51.1119 29.8795 51.1119C30.3538 51.1511 43.8599 52.2791 43.8599 52.2791C44.2951 52.2986 45.1061 52.4176 45.0865 53.4861C45.0865 53.6247 44.9675 54.5554 43.9389 54.5554H24.382V46.2431L18.944 45.8477C18.9245 45.8477 18.9245 60.0568 18.9245 60.0568H45.0661C49.6141 59.1464 50.0892 54.9906 50.0892 54.9906C50.1691 54.5366 50.1965 54.1366 50.2074 53.782V54.9311C51.0975 59.6802 55.3887 60.0568 55.3887 60.0568C55.3887 60.0568 55.8239 60.0763 55.9029 60.0959H68.6575C68.6575 60.0959 74.1151 59.6607 74.1151 54.3965L74.0751 46.6196L68.5785 46.283V52.7542C68.5785 52.7542 68.5581 54.6141 66.7593 54.6141H57.3464C57.3464 54.6141 55.7448 54.4755 55.7448 52.7738V45.4125L50.2074 45.0164ZM74.4712 46.6196C75.0051 48.499 75.737 49.0736 76.2904 49.5879C77.5562 50.8145 79.4341 51.0916 79.4341 51.0916C79.9092 51.1315 93.5538 52.2791 93.5538 52.2791C93.9883 52.2986 94.8783 52.3386 94.8783 53.407C94.8783 53.7241 94.7202 54.0607 94.5221 54.2384C94.5221 54.2384 94.0478 54.4959 93.593 54.4959H74.1746L74.1151 60.0959H94.1268C99.1499 59.7992 99.8615 55.0297 99.8615 55.0297C100.039 53.7836 99.9014 52.7542 99.9014 52.7542C99.7628 51.6262 98.1613 48.2219 94.7397 47.8861C92.7233 47.6881 74.4712 46.6196 74.4712 46.6196Z" fill="black"/>
</svg>
