<svg width="100" height="100" viewBox="0 0 100 100" fill="none" xmlns="http://www.w3.org/2000/svg">
<path d="M49.2963 59.2612C49.1658 59.2255 47.157 58.7075 45.0222 58.7075C40.9806 58.7075 38.5472 60.8899 38.5472 64.1399C38.5472 67.0167 40.5829 68.4514 43.0259 69.2232C43.2968 69.3126 43.6958 69.4376 43.9616 69.5255C45.0491 69.8676 45.9171 70.376 45.9171 71.2565C45.9171 72.2413 44.9139 72.8788 42.7329 72.8788C40.8162 72.8788 38.9787 72.3306 38.5917 72.2329V76.2315C38.8074 76.2774 40.9912 76.7061 43.3241 76.7061C46.6796 76.7061 50.5181 75.2399 50.5181 70.8751C50.5181 68.7579 49.2218 66.8088 46.3759 65.9042L45.1662 65.519C44.4445 65.2913 43.156 64.9223 43.156 63.8644C43.156 63.0288 44.1107 62.4403 45.8685 62.4403C47.3852 62.4403 49.231 62.9501 49.2963 62.9704V59.2612ZM86.3523 67.707C86.3523 70.2352 84.4158 72.2806 81.8171 72.2806C79.2158 72.2806 77.2843 70.2352 77.2843 67.707C77.2843 65.1838 79.2158 63.1376 81.8171 63.1376C84.4158 63.1376 86.3523 65.1838 86.3523 67.707ZM81.8171 58.713C76.4727 58.713 72.6398 62.744 72.6398 67.707C72.6398 72.6778 76.4727 76.7061 81.8171 76.7061C87.1611 76.7061 90.9995 72.6778 90.9995 67.707C90.9995 62.744 87.1611 58.713 81.8171 58.713ZM32.6671 76.3968H28.282V59.0209H32.6671" fill="#049FD9"/>
<path d="M22.2546 59.3356C21.8426 59.2134 20.3194 58.713 18.2565 58.713C12.9204 58.713 9.00323 62.5176 9.00323 67.7069C9.00323 73.3055 13.3273 76.706 18.2565 76.706C20.2148 76.706 21.7097 76.2421 22.2546 76.0875V71.4231C22.0662 71.5278 20.6329 72.3454 18.5708 72.3454C15.6495 72.3454 13.7653 70.2893 13.7653 67.7069C13.7653 65.0458 15.731 63.0722 18.5708 63.0722C20.668 63.0722 22.0782 63.9079 22.2546 64" fill="#049FD9"/>
<path d="M68.0231 59.3356C67.6111 59.2134 66.088 58.713 64.025 58.713C58.6889 58.713 54.7718 62.5176 54.7718 67.7069C54.7718 73.3055 59.0958 76.706 64.025 76.706C65.9833 76.706 67.4782 76.2421 68.0231 76.0875V71.4231C67.8347 71.5278 66.4014 72.3454 64.3394 72.3454C61.4181 72.3454 59.5338 70.2893 59.5338 67.7069C59.5338 65.0458 61.4995 63.0722 64.3394 63.0722C66.4366 63.0722 67.8468 63.9079 68.0231 64" fill="#049FD9"/>
<path d="M28.269 26.169C28.269 24.9713 27.2907 24 26.0917 24C24.8931 24 23.9148 24.9713 23.9148 26.169V49.2431C23.9148 50.4477 24.8931 51.4185 26.0917 51.4185C27.2907 51.4185 28.269 50.4477 28.269 49.2431V26.169ZM16.3111 34.3597C16.3111 33.1625 15.3333 32.1898 14.1343 32.1898C12.9352 32.1898 11.9574 33.1625 11.9574 34.3597V44.9083C11.9574 46.1125 12.9352 47.0838 14.1343 47.0838C15.3333 47.0838 16.3111 46.1125 16.3111 44.9083V34.3597ZM4.3537 40.3468C4.3537 39.1491 3.37593 38.1782 2.17685 38.1782C0.979167 38.1782 0 39.1491 0 40.3468V44.9083C0 46.1125 0.979167 47.0838 2.17685 47.0838C3.37593 47.0838 4.3537 46.1125 4.3537 44.9083" fill="#049FD9"/>
<path d="M23.9148 26.169C23.9148 24.9713 24.8931 24 26.0921 24C27.2908 24 28.269 24.9713 28.269 26.169V49.2431C28.269 50.4477 27.2908 51.4185 26.0921 51.4185C24.8931 51.4185 23.9148 50.4477 23.9148 49.2431V26.169ZM35.8727 34.3597C35.8727 33.1625 36.8505 32.1898 38.0495 32.1898C39.2486 32.1898 40.2264 33.1625 40.2264 34.3597V44.9083C40.2264 46.1125 39.2486 47.0838 38.0495 47.0838C36.8505 47.0838 35.8727 46.1125 35.8727 44.9083V34.3597ZM47.8301 40.3468C47.8301 39.1491 48.8079 38.1782 50.007 38.1782C51.2046 38.1782 52.1838 39.1491 52.1838 40.3468V44.9083C52.1838 46.1125 51.2046 47.0838 50.007 47.0838C48.8079 47.0838 47.8301 46.1125 47.8301 44.9083" fill="#049FD9"/>
<path d="M71.731 26.169C71.731 24.9713 72.7093 24 73.9083 24C75.1069 24 76.0852 24.9713 76.0852 26.169V49.2431C76.0852 50.4477 75.1069 51.4185 73.9083 51.4185C72.7093 51.4185 71.731 50.4477 71.731 49.2431V26.169ZM83.6889 34.3597C83.6889 33.1625 84.6667 32.1898 85.8657 32.1898C87.0648 32.1898 88.0426 33.1625 88.0426 34.3597V44.9083C88.0426 46.1125 87.0648 47.0838 85.8657 47.0838C84.6667 47.0838 83.6889 46.1125 83.6889 44.9083V34.3597ZM95.6463 40.3468C95.6463 39.1491 96.6241 38.1782 97.8231 38.1782C99.0208 38.1782 100 39.1491 100 40.3468V44.9083C100 46.1125 99.0208 47.0838 97.8231 47.0838C96.6241 47.0838 95.6463 46.1125 95.6463 44.9083" fill="#049FD9"/>
<path d="M76.0852 26.169C76.0852 24.9713 75.1069 24 73.9079 24C72.7092 24 71.731 24.9713 71.731 26.169V49.2431C71.731 50.4477 72.7092 51.4185 73.9079 51.4185C75.1069 51.4185 76.0852 50.4477 76.0852 49.2431V26.169ZM64.1273 34.3597C64.1273 33.1625 63.1495 32.1898 61.9505 32.1898C60.7514 32.1898 59.7736 33.1625 59.7736 34.3597V44.9083C59.7736 46.1125 60.7514 47.0838 61.9505 47.0838C63.1495 47.0838 64.1273 46.1125 64.1273 44.9083V34.3597ZM52.1699 40.3468C52.1699 39.1491 51.1921 38.1782 49.993 38.1782C48.7954 38.1782 47.8162 39.1491 47.8162 40.3468V44.9083C47.8162 46.1125 48.7954 47.0838 49.993 47.0838C51.1921 47.0838 52.1699 46.1125 52.1699 44.9083" fill="#049FD9"/>
</svg>
