<svg width="100" height="100" viewBox="0 0 100 100" fill="none" xmlns="http://www.w3.org/2000/svg">
<g clip-path="url(#clip0_3_120)">
<path d="M26.3553 49.5987C26.3553 46.6848 24.4219 45.0295 21.6846 45.0295H20.0094V54.171H21.637C24.1821 54.171 26.3553 52.7878 26.3553 49.5987ZM56.1543 52.8877L43.8129 62.6055L32.5336 53.7253C30.906 57.6352 26.9731 60.3509 22.4439 60.3509H12.7906V38.8466H22.4439C27.5049 38.8466 31.1519 42.0648 32.5305 45.4937L43.8129 36.6227L47.9918 39.9116L37.6515 48.0388L39.6387 49.5941L49.9759 41.4716L54.1609 44.7514L43.8222 52.8877L45.8063 54.4461L56.1543 46.3082V38.8466H63.6559V54.0742H71.139V60.377H56.1543V52.8877ZM80.6417 54.0773H88.1218V60.377H73.1324V38.8466H80.6417V54.0773Z" fill="#007DB8"/>
<path d="M50.0031 5.40375C37.6925 5.40375 26.5438 10.3971 18.472 18.4751C10.3971 26.5346 5.40682 37.6894 5.40682 50.0061C5.40682 62.3137 10.3971 73.4608 18.472 81.5234C26.5438 89.5906 37.6925 94.5932 50.0031 94.5932C62.3167 94.5932 73.4715 89.5906 81.5311 81.5234C89.6029 73.4608 94.5824 62.3137 94.5824 50.0061C94.5824 37.6894 89.6029 26.5346 81.5311 18.4751C73.4715 10.3971 62.3167 5.40375 50.0031 5.40375ZM50.0031 0C77.6135 0 100 22.3896 100 50.0061C100 77.6135 77.6135 100 50.0031 100C22.3957 100 0 77.6135 0 50.0061C0 22.3896 22.3957 0 50.0031 0Z" fill="#007DB8"/>
</g>
<defs>
<clipPath id="clip0_3_120">
<rect width="100" height="100" fill="white"/>
</clipPath>
</defs>
</svg>
