<svg width="100" height="100" viewBox="0 0 100 100" fill="none" xmlns="http://www.w3.org/2000/svg">
<path d="M25.7548 48.6898H31.3423C31.7298 48.6898 31.8048 49.0898 31.5048 49.5773L30.3798 51.4273C30.0798 51.9148 29.5173 52.3148 29.1298 52.3148H23.5423C23.1548 52.3148 23.0798 51.9148 23.3798 51.4273L24.5048 49.5773C24.8048 49.0898 25.3673 48.6898 25.7548 48.6898Z" fill="#2B8CA1"/>
<path d="M52.4673 40.0148C54.5173 39.8273 56.9548 41.4398 55.7548 43.5523C54.6048 45.4648 50.4423 45.9523 49.1923 45.8398C48.7923 45.8023 48.1423 45.5523 48.1548 44.9148C48.1673 44.4648 48.4173 42.8898 49.2798 41.6523C50.1798 40.4398 51.5048 40.0773 52.4673 40.0148Z" fill="#2B8CA1"/>
<path d="M65.2673 44.1023C65.9048 43.8148 65.9673 44.5148 65.9423 44.7273V46.3523C65.9423 46.6648 66.2048 46.5148 66.3423 46.4648C68.2673 45.6523 70.2173 44.4398 72.6923 44.5023C74.8923 44.5523 75.5548 46.2898 75.5423 48.2898V56.8023C75.5423 57.5523 75.6048 57.7273 75.9548 58.0148C76.0673 58.0773 76.6548 58.1273 76.8798 58.1273C77.1173 58.1273 77.1173 58.3023 77.0548 58.4773L76.5298 59.8148C76.4173 60.0398 76.1798 60.1023 76.0048 60.1023H71.0048C69.2673 60.0398 68.7423 58.7398 68.7673 58.0773V49.9773C68.7673 48.3148 66.0548 48.1898 66.0548 50.4273V57.2523C66.0798 57.5773 65.9798 58.0023 66.8548 58.0648C67.4298 58.0648 67.8423 58.0023 67.5548 58.7023L67.1298 59.7773C67.0298 59.9773 66.7923 60.1023 66.5673 60.0898H58.3048C58.1298 60.0898 57.9923 59.8898 58.0173 59.7398L58.6048 58.2273C58.6298 58.1648 58.6923 58.0523 58.7673 58.0523C59.0423 58.0398 59.2298 57.9023 59.2798 57.1273V48.2523C59.2798 47.5273 58.6173 47.6148 58.1173 47.6148C57.8923 47.6148 57.7673 47.5523 57.8298 47.2648L58.2923 46.2773C58.3548 46.0398 58.4673 45.9523 58.6423 45.9273C61.3673 45.5148 62.9423 45.3273 65.2673 44.1023Z" fill="#2B8CA1"/>
<path d="M85.4423 40.3648C85.9173 40.2898 86.1923 40.5773 86.1923 41.1023V49.6023C86.2548 50.0648 86.5923 49.7523 86.6923 49.6148L89.6298 45.8898C89.9423 45.5023 90.6923 45.4273 91.1548 45.4273H97.5548C97.6673 45.4273 97.7298 45.5648 97.6173 45.7148L96.8048 46.8148C96.7298 46.9148 96.6673 47.0398 96.2798 47.0398H95.9673C95.6798 47.0523 95.6173 47.1523 95.5048 47.2148L92.2173 50.9023C91.5298 51.7273 91.6923 52.0773 92.3048 52.6648L96.8173 57.2898C97.8173 57.9898 98.7298 58.0398 99.7673 58.1023C100.042 58.1148 99.9798 58.3398 99.8798 58.4523L98.7173 59.7898C98.6048 59.9648 98.0923 60.0773 97.8048 60.0773H93.3298C92.7548 60.0773 91.7173 59.9023 90.9048 59.3773C89.2798 58.0398 88.2548 56.3523 86.6673 54.8523C86.3923 54.5898 86.1673 54.7148 86.1673 54.9398V56.8773C86.1673 57.7523 86.5298 57.9773 87.8048 58.0398C88.2923 58.0648 88.1548 58.3273 88.0423 58.6148L87.6173 59.7148C87.4923 59.9773 87.3298 60.0648 87.1048 60.0648H77.8548C77.5673 60.0648 77.3798 59.9773 77.4423 59.8023L77.9548 58.4398C78.0673 58.1773 78.1423 58.1148 78.5298 58.0898C79.1673 58.0523 79.4048 57.8398 79.4173 56.8898V44.3898C79.4173 43.9648 79.3173 43.8023 79.0173 43.8398L77.8423 44.0023C77.4923 44.0523 77.4298 43.7898 77.5673 43.5398L78.2923 42.3273C78.4298 42.0898 78.6798 42.0648 78.9548 42.0148C81.3173 41.6273 83.7048 40.9398 85.1673 40.3898C85.2548 40.4148 85.3298 40.3773 85.4423 40.3648Z" fill="#2B8CA1"/>
<path d="M55.5924 45.3773C55.8799 45.2648 56.2299 45.4898 56.1674 46.1273V57.1398C56.3174 57.9148 56.5674 58.1023 57.2549 58.1773C57.2549 58.1773 57.7299 58.1898 57.6049 58.5273L57.1549 59.6898C56.9799 60.0398 56.8673 60.1023 56.4548 60.1023H47.8423C47.6173 60.0898 47.5298 59.9398 47.6048 59.6898L48.0298 58.5898C48.1048 58.4398 48.1423 58.2898 48.4298 58.2398C49.3048 58.0023 49.3548 57.8898 49.3548 56.7273V50.1398C49.3548 49.0398 49.1798 49.0898 47.9048 49.2148C47.6798 49.1523 47.6923 48.9398 47.7298 48.8648L48.3673 47.6523C48.5423 47.3023 48.7673 47.3023 48.7673 47.3023C51.2173 47.1148 53.6549 46.5023 55.5924 45.3773Z" fill="#2B8CA1"/>
<path d="M12.1173 60.0898C13.9923 60.1148 16.2548 60.2148 18.3548 58.5773C19.8548 57.5898 21.6548 53.5898 22.3048 51.9398C22.6298 51.0773 22.7173 49.9398 22.3048 49.0773C21.1673 46.5023 19.5173 43.6273 18.4298 42.4648C16.8673 41.0273 15.4048 40.9023 12.9673 40.9023H2.56735C2.12985 40.9023 1.64235 41.0148 1.46735 41.3148L0.717347 42.7023C0.604847 43.2773 1.29235 43.3398 1.29235 43.3398H2.35485C2.64235 43.3398 2.70485 43.5648 2.70485 43.8023V56.6773C2.70485 57.2523 2.05485 57.6023 1.52985 57.7148C1.29235 57.7773 0.954847 57.8398 0.779847 58.1273L0.0298467 59.5773C-0.0826533 59.8648 0.142347 60.1023 0.379847 60.1023C4.46735 60.1023 8.01735 60.1148 12.1173 60.0898ZM9.47985 57.7023V43.8648C9.47985 43.5148 9.54235 43.3398 9.87985 43.2898H10.8923C11.2548 43.2898 11.7798 43.2148 12.1048 43.7898L15.5923 49.8773C15.8798 50.5148 15.7923 50.7773 15.5923 51.2148L12.0548 57.1898C11.6298 57.7773 11.4298 57.6648 10.8923 57.7023C10.9048 57.7023 10.8798 57.7023 10.8923 57.7023H9.47985Z" fill="#2B8CA1"/>
<path d="M41.8048 41.0398C42.2548 41.0398 42.4173 41.3023 42.3298 41.4773L41.4048 43.1648C41.4048 43.1648 41.2923 43.5148 40.4798 43.5148H40.3923C39.8673 43.5148 39.4548 43.5148 39.4048 44.5648V56.7898C39.4048 57.3148 39.6298 57.7523 40.2673 57.7773H41.5298C43.5923 57.7523 43.5423 55.6273 44.0048 53.7773C44.1173 53.4898 44.1798 53.3148 44.5298 53.1398L46.3548 52.5023C46.5923 52.5023 46.8173 52.5023 46.8798 52.9023V59.0523C46.9423 59.6273 46.4173 60.1523 45.7173 60.0898H30.0173C29.4423 60.0898 29.3173 59.9148 29.4423 59.5648L30.0173 58.2898C30.0173 58.2898 30.1923 57.9398 30.7173 57.9398C31.8798 57.8773 32.6048 57.8648 32.5923 56.0898V44.6648C32.5923 43.9148 32.4173 43.4523 31.6548 43.4523C31.3548 43.4523 31.0673 43.4523 30.7673 43.4523C30.1923 43.4523 29.8798 43.2523 30.0173 42.9273L30.8298 41.4148C31.0173 41.0773 31.1798 41.0273 31.4673 41.0273H41.8048" fill="#2B8CA1"/>
</svg>
