<svg width="100" height="100" viewBox="0 0 100 100" fill="none" xmlns="http://www.w3.org/2000/svg">
<g clip-path="url(#clip0_3_132)">
<path d="M32.9971 74.5172C32.9971 75.911 32.5838 77.2735 31.8094 78.4323C31.0351 79.5912 29.9345 80.4944 28.6469 81.0278C27.3592 81.5611 25.9423 81.7007 24.5753 81.4288C23.2084 81.1569 21.9527 80.4857 20.9672 79.5002C19.9817 78.5147 19.3105 77.259 19.0386 75.892C18.7667 74.5251 18.9062 73.1082 19.4396 71.8205C19.973 70.5328 20.8762 69.4323 22.0351 68.6579C23.1939 67.8836 24.5564 67.4703 25.9501 67.4703C26.8755 67.4703 27.7919 67.6526 28.6469 68.0067C29.5019 68.3609 30.2787 68.8799 30.9331 69.5343C31.5874 70.1887 32.1065 70.9655 32.4607 71.8205C32.8148 72.6755 32.9971 73.5918 32.9971 74.5172Z" fill="#E7352C"/>
<path d="M94.4673 67.1846C92.2209 51.5652 84.9764 37.0933 73.8181 25.935C62.6599 14.7767 48.188 7.53225 32.5685 5.28582C28.8355 7.26744 25.3912 9.75056 22.3314 12.6661V19.4749C37.6878 19.4875 52.4122 25.5901 63.2753 36.4442C74.1383 47.2983 80.253 62.0178 80.2782 77.3741H87.0871C89.9765 74.3103 92.4572 70.8853 94.4673 67.1846Z" fill="#E7352C"/>
<path d="M99.9906 45.8057C99.9907 39.7704 98.7981 33.7946 96.4813 28.2217C94.1645 22.6488 90.7692 17.5887 86.4905 13.3322C82.2119 9.07564 77.1343 5.70663 71.5494 3.41876C65.9646 1.13088 59.9826 -0.0307497 53.9474 0.000618749C52.3285 0.000618749 50.7573 0.000618751 49.186 0.238691L48.1385 3.28602C59.2868 7.19277 69.4142 13.556 77.7714 21.905C86.1286 30.2539 92.5018 40.375 96.4195 51.5195L99.4669 50.4243C99.4669 48.9007 99.7525 47.377 99.7525 45.6629" fill="#E7352C"/>
<path d="M54.4712 99.991C40.0657 99.9911 26.2468 94.2849 16.0383 84.1211C5.82988 73.9572 0.063211 60.1634 0.000250128 45.7581C-0.0215134 38.6015 1.37715 31.5117 4.1152 24.8995C6.85325 18.2873 10.8762 12.2842 15.9511 7.23802L19.046 10.1425C14.3298 14.8172 10.5863 20.3797 8.03158 26.509C5.47685 32.6383 4.16151 39.2129 4.16151 45.8533C4.16151 52.4938 5.47685 59.0684 8.03158 65.1977C10.5863 71.327 14.3298 76.8895 19.046 81.5642C23.7207 86.2804 29.2832 90.0239 35.4125 92.5786C41.5418 95.1334 48.1165 96.4487 54.7569 96.4487C61.3973 96.4487 67.9719 95.1334 74.1012 92.5786C80.2305 90.0239 85.7931 86.2804 90.4677 81.5642L93.3722 84.4687C88.2471 89.5143 82.1664 93.4862 75.4866 96.1516C68.8067 98.817 61.662 100.122 54.4712 99.991Z" fill="#E7352C"/>
<path d="M53.8522 80.5167C54.3433 75.1566 53.4599 69.7598 51.2855 64.836C49.111 59.9122 45.7173 55.6241 41.4248 52.3765C36.826 48.7552 31.2957 46.5101 25.474 45.901C24.7461 45.8059 24.0813 45.4388 23.6131 44.8734C23.1449 44.3081 22.9081 43.5865 22.9504 42.8536C22.9801 42.4798 23.0844 42.1157 23.257 41.7828C23.4297 41.45 23.6672 41.155 23.9557 40.9154C24.2441 40.6757 24.5776 40.4963 24.9365 40.3876C25.2954 40.2789 25.6724 40.2431 26.0454 40.2825C35.8724 41.3044 44.8952 46.1756 51.1409 53.831C57.3866 61.4865 60.3473 71.3035 59.3755 81.1357C59.1794 83.3144 58.7647 85.4679 58.1375 87.5636L66.4224 89.8967C68.8743 89.1917 71.2633 88.2839 73.5646 87.1827C74.181 83.9659 74.4839 80.697 74.4693 77.4217C74.4551 64.919 69.9688 52.8338 61.8214 43.3503C53.6739 33.8667 42.4028 27.6106 30.045 25.7124C27.2905 25.2061 24.4669 25.2061 21.7124 25.7124C18.2257 26.6336 15.0926 28.5731 12.7133 31.2833C10.795 33.5044 9.4554 36.1652 8.81362 39.029C8.17185 41.8928 8.24781 44.8708 9.03476 47.6981C9.8217 50.5255 11.2952 53.1145 13.3243 55.2349C15.3533 57.3553 17.875 58.9414 20.6649 59.852C22.1408 60.2039 23.635 60.4742 25.1407 60.6614C29.0299 61.3246 32.5591 63.3423 35.1037 66.3575C37.6482 69.3726 39.044 73.1907 39.0441 77.136C39.0439 80.3304 38.1178 83.4563 36.3777 86.1352L42.0914 89.8015C44.8919 90.5697 47.7638 91.0484 50.662 91.2299C52.3701 87.8022 53.4352 84.0904 53.8046 80.2786" fill="#E7352C"/>
</g>
<defs>
<clipPath id="clip0_3_132">
<rect width="100" height="100" fill="white"/>
</clipPath>
</defs>
</svg>
