<svg width="100" height="100" viewBox="0 0 100 100" fill="none" xmlns="http://www.w3.org/2000/svg">
<g clip-path="url(#clip0_3_7)">
<rect width="100" height="100" fill="white"/>
<path d="M99 51.1364C99 47.5909 98.6818 44.1818 98.0909 40.9091H51V60.2727H77.9091C76.7273 66.5 73.1818 71.7727 67.8636 75.3182V87.9091H84.0909C93.5455 79.1818 99 66.3636 99 51.1364Z" fill="#4285F4"/>
<path d="M50.9999 100C64.4999 100 75.8181 95.5454 84.0909 87.9091L67.8636 75.3182C63.409 78.3182 57.7272 80.1363 50.9999 80.1363C37.9999 80.1363 26.9545 71.3636 23 59.5454H6.36359V72.4545C14.5909 88.7727 31.4545 100 50.9999 100Z" fill="#34A853"/>
<path d="M23 59.5C22 56.5 21.4091 53.3182 21.4091 50C21.4091 46.6818 22 43.5 23 40.5V27.5909H6.36364C2.95455 34.3182 1 41.9091 1 50C1 58.0909 2.95455 65.6818 6.36364 72.4091L19.3182 62.3182L23 59.5Z" fill="#FBBC05"/>
<path d="M50.9999 19.9091C58.3636 19.9091 64.909 22.4545 70.1363 27.3636L84.4545 13.0455C75.7727 4.95455 64.4999 0 50.9999 0C31.4545 0 14.5909 11.2273 6.36359 27.5909L23 40.5C26.9545 28.6818 37.9999 19.9091 50.9999 19.9091Z" fill="#EA4335"/>
</g>
<defs>
<clipPath id="clip0_3_7">
<rect width="100" height="100" fill="white"/>
</clipPath>
</defs>
</svg>
