<svg width="100" height="100" viewBox="0 0 100 100" fill="none" xmlns="http://www.w3.org/2000/svg">
<path d="M80.3826 43.0033C77.9252 42.9217 75.268 44.3363 74.0079 46.9985C73.2261 48.501 72.6295 50.1741 72.2328 51.8161C72.1969 51.9614 72.1644 52.1065 72.1334 52.2509C72.0934 52.4844 72.0905 52.784 72.1117 53.09C72.2088 54.3828 73.3569 55.9455 75.2487 56.0345H76.5277H76.5417H77.493C79.9495 56.1161 82.6055 54.7015 83.8664 52.0393C84.6482 50.536 85.2448 48.8616 85.6414 47.2204C85.6765 47.0743 85.7107 46.9291 85.7409 46.7855C85.7817 46.5513 85.7846 46.2525 85.7626 45.9465C85.6655 44.6529 84.5174 43.0915 82.6256 43.0033H81.3313H80.3826ZM38.2492 43.1232L39.254 55.9082H39.8789H41.1387H41.2688C41.2655 55.9075 41.2606 55.9082 41.2573 55.9082C41.2712 55.9082 41.2851 55.9082 41.2981 55.9082H41.3759C41.7766 55.8958 42.1346 55.6866 42.3476 55.3675H42.3489L50.5636 43.1232H48.4392L42.5542 51.9118L41.8643 43.1232H38.2492ZM52.0314 43.1232L47.317 55.9082H50.936L55.6491 43.1232H52.0314ZM60.5228 43.1232C57.2722 43.163 55.8357 46.7792 57.6116 49.0962C58.5126 50.1963 59.799 51.3371 60.5254 52.5417C60.9857 53.1929 60.4934 54.2794 59.6136 54.29H57.8271H53.874L53.2798 55.9082H60.5471C63.3953 55.8997 65.3225 52.5459 63.4111 49.9735C62.5289 48.6701 61.1298 47.7807 60.3022 46.5076C59.8101 45.8432 60.3048 44.7528 61.1936 44.7414H63.0362H66.5353L67.1308 43.1232H60.5228ZM69.6353 43.1232L64.9235 55.9082H68.5412L73.2543 43.1232H69.6353ZM89.1686 43.1232L84.4351 55.9082H86.2994L89.5613 47.0967L89.5779 47.2548L92.5083 55.1686C92.6838 55.5848 93.087 55.8829 93.5603 55.9082H95.2653L100 43.1232H98.1357L94.9362 51.7638L91.5302 43.1232H91.0329H89.1686ZM81.2089 44.3257C81.8912 44.3779 82.4331 44.9519 82.4331 45.6481C82.4383 45.8195 82.4087 45.9886 82.3451 46.1429L79.9541 52.6539C79.4718 53.9034 78.3505 54.6691 77.0186 54.7082H76.6654C75.9831 54.656 75.4412 54.0821 75.4412 53.3859C75.436 53.2145 75.466 53.0433 75.5305 52.8899L77.9202 46.3787C78.4033 45.1292 79.5247 44.3653 80.8582 44.327H81.2089V44.3257Z" fill="#6C6E71"/>
<path d="M4.71436 43.1232L0 55.9082H3.84213L6.09666 49.7937H10.6707L8.41622 55.9082H11.418C11.9256 55.9082 12.3618 55.5877 12.5389 55.1405C12.5408 55.134 12.5428 55.132 12.5454 55.1288L16.9716 43.1229H13.1294L11.3149 48.0451H6.74077L8.55536 43.1229L4.71436 43.1232ZM19.4134 43.1232L14.7003 55.9082H18.5412L23.2543 43.1232H23.1433H19.5256H19.4134ZM25.8684 43.1232L21.1553 55.9082H24.9962L26.8031 51.0051L27.7633 50.268L30.3111 55.2081L30.3124 55.2016C30.3157 55.2081 30.317 55.21 30.319 55.2133C30.5279 55.6467 30.9866 55.9324 31.4934 55.8981C31.4845 55.8981 31.4747 55.9047 31.4641 55.9047H34.726L30.6684 48.0368L37.0685 43.1222H34.1981L27.9369 47.9296L29.7094 43.1222H25.8686L25.8684 43.1232Z" fill="#D71820"/>
</svg>
