<svg width="100" height="100" viewBox="0 0 100 100" fill="none" xmlns="http://www.w3.org/2000/svg">
<path d="M13.5908 33.0028L1 67H11.2613L17.2825 50.7406H29.4987L23.4774 67H31.4944C32.8501 67 34.015 66.1479 34.488 64.9586C34.4932 64.9413 34.4984 64.9361 34.5054 64.9274L46.3265 33.0019H36.0652L31.2189 46.0909H19.0028L23.849 33.0019L13.5908 33.0028ZM52.8479 33.0028L40.2606 67H50.5185L63.1058 33.0028H62.8095H53.1477H52.8479ZM70.0875 33.0028L57.5001 67H67.758L72.5838 53.9619L75.1483 52.0019L81.9528 65.1383L81.9563 65.121C81.965 65.1383 81.9685 65.1435 81.9737 65.1522C82.5317 66.3047 83.7568 67.0644 85.1104 66.9733C85.0865 66.9733 85.0603 66.9906 85.0321 66.9906H93.7438L82.9069 46.0687L100 33H92.3338L75.612 45.7838L80.3459 33H70.088L70.0875 33.0028Z" fill="#D71820"/>
</svg>
