<svg width="100" height="100" viewBox="0 0 100 100" fill="none" xmlns="http://www.w3.org/2000/svg">
<path d="M67.8197 53.0051C64.0393 52.8799 59.9513 55.0499 58.0127 59.1337C56.8099 61.4385 55.8921 64.005 55.2819 66.5239C55.2266 66.7468 55.1766 66.9694 55.1289 67.1909C55.0674 67.549 55.0629 68.0086 55.0955 68.4781C55.2449 70.4612 57.0112 72.8584 59.9215 72.9949H61.8892H61.9108H63.3743C67.1535 73.1201 71.2396 70.95 73.1794 66.8662C74.3822 64.5602 75.3 61.9917 75.9102 59.4741C75.9641 59.2499 76.0168 59.0273 76.0632 58.807C76.126 58.4477 76.1305 57.9893 76.0966 57.5199C75.9471 55.5355 74.1809 53.1403 71.2705 53.0051H69.2793H67.8197ZM3 53.189L4.54589 72.8012H5.50717H7.44543H7.64553C7.64051 72.8002 7.63288 72.8012 7.62786 72.8012C7.64925 72.8012 7.67054 72.8012 7.69063 72.8012H7.8103C8.42678 72.7821 8.97749 72.4613 9.30519 71.9718H9.3072L21.9451 53.189H18.6767L9.62304 66.6706L8.56171 53.189H3ZM24.2031 53.189L16.9503 72.8012H22.5179L29.7687 53.189H24.2031ZM37.2667 53.189C32.2659 53.2501 30.0558 58.7973 32.7879 62.3515C34.174 64.0391 36.1532 65.7891 37.2706 67.6369C37.9788 68.636 37.2214 70.3025 35.8679 70.3189H33.1195H27.0379L26.1237 72.8012H37.304C41.6858 72.7882 44.6507 67.6434 41.7102 63.6974C40.3529 61.698 38.2004 60.3336 36.9273 58.3806C36.1702 57.3615 36.9313 55.6889 38.2986 55.6713H41.1334H46.5166L47.4327 53.189H37.2667ZM51.2857 53.189L44.0369 72.8012H49.6025L56.8533 53.189H51.2857ZM81.3365 53.189L74.0543 72.8012H76.9225L81.9407 59.2843L81.9662 59.5269L86.4744 71.6666C86.7444 72.3051 87.3647 72.7623 88.0929 72.8012H90.7159L98 53.189H95.1319L90.2097 66.4437L84.9697 53.189H84.2046H81.3365ZM69.091 55.0336C70.1406 55.1138 70.9743 55.9942 70.9743 57.0622C70.9823 57.3251 70.9368 57.5845 70.8389 57.8211L67.1606 67.8091C66.4185 69.7258 64.6936 70.9004 62.6445 70.9604H62.1011C61.0514 70.8803 60.2178 69.9999 60.2178 68.9319C60.2097 68.669 60.2559 68.4064 60.3551 68.1711L64.0315 58.183C64.7748 56.2662 66.4999 55.0944 68.5515 55.0356H69.091V55.0336Z" fill="#6C6E71"/>
<path d="M24.9026 23.002L16 47H23.2555L27.5129 35.5228H36.1506L31.8931 47H37.5617C38.5203 47 39.3439 46.3985 39.6784 45.559C39.6821 45.5468 39.6858 45.5431 39.6907 45.537L48.049 23.0013H40.7936L37.3669 32.2406H28.7292L32.1559 23.0013L24.9026 23.002ZM52.6602 23.002L43.76 47H51.0131L59.9132 23.002H59.7037H52.8721H52.6602ZM64.8497 23.002L55.9496 47H63.2026L66.6148 37.7966L68.4281 36.4131L73.2394 45.6859L73.2418 45.6736C73.248 45.6859 73.2505 45.6896 73.2542 45.6957C73.6487 46.5092 74.5149 47.0455 75.472 46.9811C75.4551 46.9811 75.4366 46.9934 75.4166 46.9934H81.5764L73.914 32.2249L86 23H80.5795L68.7559 32.0238L72.1031 23H64.8501L64.8497 23.002Z" fill="#D71820"/>
</svg>
