<svg width="100" height="100" viewBox="0 0 100 100" fill="none" xmlns="http://www.w3.org/2000/svg">
<path fill-rule="evenodd" clip-rule="evenodd" d="M11.1196 92.3006V58.3108H2.35519C1.88866 58.3049 1.43412 58.1622 1.04783 57.9006C0.661535 57.6389 0.360437 57.2697 0.181799 56.8387C0.00316029 56.4077 -0.0451775 55.9338 0.0427663 55.4756C0.13071 55.0174 0.351076 54.595 0.676593 54.2608L47.8916 5.88506C48.1618 5.60739 48.4845 5.38618 48.8409 5.23425C49.1973 5.08233 49.5803 5.00273 49.9678 5.00007C50.3552 4.99741 50.7393 5.07175 51.0978 5.21877C51.4562 5.36579 51.7819 5.58256 52.0559 5.85649L52.0809 5.88149L76.7242 31.014V26.3711C76.7227 26.1117 76.7724 25.8546 76.8704 25.6144C76.9683 25.3743 77.1126 25.1558 77.295 24.9714C77.4774 24.787 77.6944 24.6403 77.9335 24.5398C78.1726 24.4392 78.4291 24.3867 78.6885 24.3853H86.8743C87.3975 24.3891 87.8978 24.6003 88.2654 24.9726C88.633 25.3449 88.8379 25.8479 88.8351 26.3711V43.4428L99.3281 54.2858C99.7652 54.7388 100.007 55.3457 99.9999 55.9753C99.9932 56.6048 99.739 57.2064 99.2923 57.6501C98.8531 58.0847 98.2602 58.3286 97.6423 58.3287H88.8422V92.3185C88.845 92.8417 88.6402 93.3446 88.2726 93.7169C87.9049 94.0892 87.4046 94.3004 86.8814 94.3042H13.0839C12.823 94.3028 12.565 94.2498 12.3248 94.1481C12.0845 94.0464 11.8668 93.8982 11.6841 93.7119C11.5015 93.5256 11.3576 93.305 11.2607 93.0627C11.1638 92.8205 11.1158 92.5615 11.1196 92.3006Z" fill="#3DBCF3"/>
<path d="M70.4205 46.3214C69.0877 46.3284 67.7694 46.5979 66.5408 47.1145C65.3122 47.6312 64.1974 48.3848 63.2601 49.3323C62.3229 50.2799 61.5815 51.4028 61.0783 52.637C60.5751 53.8711 60.3199 55.1923 60.3275 56.5251C60.3259 57.8937 60.5979 59.2488 61.1275 60.5109L53.7667 67.9503V45.3249C55.9378 44.4464 57.7359 42.8401 58.8527 40.7813C59.9695 38.7225 60.3355 36.3394 59.888 34.0404C59.4405 31.7414 58.2073 29.6696 56.3998 28.18C54.5923 26.6904 52.3231 25.8758 49.9809 25.8758C47.6387 25.8758 45.3694 26.6904 43.562 28.18C41.7545 29.6696 40.5213 31.7414 40.0738 34.0404C39.6263 36.3394 39.9923 38.7225 41.1091 40.7813C42.2259 42.8401 44.024 44.4464 46.1951 45.3249V67.9503L38.8343 60.5109C39.3638 59.2488 39.6358 57.8937 39.6343 56.5251C39.6118 54.5339 39.0007 52.5939 37.8781 50.9492C36.7554 49.3045 35.1713 48.0287 33.3252 47.2823C31.4791 46.5358 29.4534 46.3522 27.5031 46.7544C25.5529 47.1567 23.7652 48.1269 22.3651 49.5428C20.9649 50.9588 20.015 52.7573 19.6347 54.712C19.2544 56.6667 19.4609 58.6901 20.228 60.5277C20.9952 62.3654 22.2888 63.935 23.946 65.039C25.6032 66.1431 27.55 66.7323 29.5413 66.7324C30.8923 66.7312 32.2289 66.4553 33.4699 65.9217L46.1808 78.779V94.2864H53.7524V78.7754L66.4669 65.9181C67.7077 66.4526 69.0444 66.7285 70.3955 66.7288C73.0691 66.6788 75.6163 65.5816 77.4894 63.6731C79.3625 61.7647 80.4119 59.1974 80.4119 56.5233C80.4119 53.8492 79.3625 51.2819 77.4894 49.3735C75.6163 47.465 73.0691 46.3678 70.3955 46.3178L70.4205 46.3214ZM29.5413 60.6073C28.732 60.6165 27.9382 60.3849 27.2608 59.942C26.5834 59.4991 26.053 58.8648 25.7369 58.1197C25.4208 57.3747 25.3333 56.5524 25.4855 55.7575C25.6378 54.9626 26.0228 54.2309 26.5919 53.6554C27.1609 53.0798 27.8881 52.6864 28.6812 52.5251C29.4744 52.3637 30.2975 52.4418 31.0462 52.7494C31.7948 53.057 32.4351 53.5801 32.8857 54.2524C33.3364 54.9247 33.577 55.7157 33.5771 56.5251C33.5804 57.0582 33.4786 57.5867 33.2775 58.0805C33.0764 58.5742 32.78 59.0235 32.4052 59.4026C32.0304 59.7817 31.5845 60.0832 31.0931 60.2899C30.6017 60.4966 30.0744 60.6045 29.5413 60.6073ZM49.9988 39.9427C49.1896 39.9512 48.3962 39.719 47.7192 39.2757C47.0423 38.8323 46.5124 38.1978 46.1969 37.4526C45.8813 36.7075 45.7943 35.8854 45.947 35.0907C46.0996 34.296 46.485 33.5646 47.0541 32.9894C47.6233 32.4142 48.3506 32.0212 49.1436 31.8602C49.9366 31.6991 50.7596 31.7774 51.508 32.0851C52.2564 32.3928 52.8966 32.9159 53.347 33.5882C53.7975 34.2604 54.0381 35.0513 54.0381 35.8605C54.0414 36.3939 53.9395 36.9227 53.7382 37.4167C53.5369 37.9107 53.2401 38.3601 52.8649 38.7392C52.4898 39.1184 52.0435 39.4199 51.5517 39.6264C51.0599 39.8329 50.5322 39.9404 49.9988 39.9427ZM70.4383 60.6073C69.6292 60.6158 68.8358 60.3836 68.1588 59.9403C67.4819 59.4969 66.952 58.8623 66.6365 58.1172C66.3209 57.3721 66.2339 56.55 66.3866 55.7553C66.5392 54.9606 66.9246 54.2292 67.4937 53.654C68.0629 53.0788 68.7902 52.6858 69.5832 52.5247C70.3762 52.3637 71.1992 52.442 71.9476 52.7497C72.696 53.0574 73.3361 53.5805 73.7866 54.2528C74.2371 54.925 74.4776 55.7159 74.4777 56.5251C74.481 57.06 74.3785 57.5903 74.1761 58.0854C73.9736 58.5805 73.6753 59.0307 73.2982 59.4101C72.9212 59.7895 72.4728 60.0906 71.9789 60.2961C71.485 60.5015 70.9554 60.6073 70.4205 60.6073H70.4383Z" fill="white"/>
</svg>
