<svg width="100" height="100" viewBox="0 0 100 100" fill="none" xmlns="http://www.w3.org/2000/svg">
<path d="M42.6988 12.0002C41.3627 12.1184 37.7523 12.9402 37.7523 12.9402C29.6145 15.0436 27.6895 22.4285 27.6895 22.4285C27.2922 23.6703 27.1116 24.943 27.0585 26.142V27.7739C27.1665 30.2952 27.7273 32.1779 27.7273 32.1779C30.4456 44.2313 43.811 64.0368 46.6835 68.1973C46.8873 68.3994 47.0505 68.3265 47.0505 68.3265C47.3605 68.2408 47.3363 67.9435 47.3363 67.9435L47.3422 67.945C51.7665 23.7222 42.6988 12.0002 42.6988 12.0002ZM57.3178 12.0002C57.3178 12.0002 48.2105 23.7284 52.6382 67.9769H52.6441C52.6783 68.2578 52.8776 68.3163 52.8776 68.3163C53.174 68.4311 53.3259 68.1464 53.3259 68.1464L53.3274 68.1493C56.2735 63.8825 69.5628 44.1848 72.2691 32.1776C72.2691 32.1776 73.7364 26.3661 72.3199 22.4283C72.3199 22.4283 70.3081 14.929 62.16 12.9472C62.16 12.9472 59.8117 12.3513 57.3178 12.0002ZM15.3103 25.276C15.3103 25.276 7.55646 32.6354 7.17107 40.4375H7.17415V41.6197C7.18005 41.7087 7.18454 41.7988 7.19016 41.8895C7.52416 48.1808 12.257 51.9043 12.257 51.9043C19.8827 59.3364 38.3474 68.7198 42.6381 70.8489C42.6982 70.8714 42.9199 70.9438 43.0501 70.7793C43.0501 70.7793 43.1178 70.7279 43.1487 70.6356V70.4397C43.1456 70.4284 43.1397 70.4172 43.1341 70.4049C31.3839 44.7358 15.3103 25.276 15.3103 25.276ZM84.6874 25.276C84.6874 25.276 68.661 44.6749 56.916 70.2919L56.9205 70.2905C56.9205 70.2905 56.7818 70.5875 57.006 70.7793C57.006 70.7793 57.073 70.8299 57.1656 70.8503H57.3281C57.3573 70.8419 57.3886 70.8307 57.4195 70.8097C61.8267 68.6223 80.1484 59.3034 87.7381 51.9055C87.7381 51.9055 92.5445 48.0458 92.7963 41.8486C93.3513 33.2415 84.6874 25.276 84.6874 25.276ZM99.112 50.7598C99.112 50.7598 72.9841 64.7814 59.4748 73.8938L59.4794 73.8981C59.4794 73.8981 59.2342 74.0586 59.3198 74.3463C59.3198 74.3463 59.448 74.5785 59.6346 74.5785C64.4734 74.5869 82.7838 74.6089 83.2428 74.5233C83.2428 74.5233 85.6105 74.4287 88.536 73.3048C88.536 73.3048 95.049 71.2341 98.4319 63.8397C98.4319 63.8397 99.9777 60.7478 100 56.404V56.2198C99.9888 54.5447 99.7526 52.6902 99.112 50.7598ZM0.878426 50.8253C-1.49882 58.1846 1.70155 64.1146 1.70672 64.1242C5.0419 71.1712 11.4082 73.3064 11.4082 73.3064C14.3475 74.514 17.2874 74.5974 17.2874 74.5974C17.7465 74.6814 35.5691 74.6059 40.3445 74.5834C40.5466 74.5819 40.6578 74.3787 40.6578 74.3787C40.6719 74.3563 40.6842 74.3338 40.6898 74.3133V74.1292C40.6502 74.006 40.5447 73.919 40.5447 73.919L40.5478 73.9175C27.0452 64.8081 0.878426 50.8253 0.878426 50.8253ZM39.7991 76.8458L9.06263 77.9236C12.3959 83.8656 18.0094 88.4835 23.8571 87.0652C27.8926 86.0563 37.0349 79.6795 40.0529 77.5247L40.0428 77.5163C40.2775 77.3055 40.1937 77.1362 40.1937 77.1362C40.1165 76.8603 39.7991 76.8606 39.7991 76.8606L39.7991 76.8458ZM60.1566 76.8683L60.1535 76.8795C60.1535 76.8795 59.8836 76.9137 59.8082 77.1159C59.8082 77.1159 59.7427 77.3921 59.9243 77.5293L59.9212 77.5321C62.8639 79.6423 71.7846 85.879 76.0822 87.09C76.0822 87.09 76.7332 87.3115 77.8243 87.351H78.48C81.3593 87.25 86.3753 85.7708 90.9333 77.9396L60.1566 76.8683Z" fill="#CF0A2C"/>
</svg>
