<svg width="100" height="100" viewBox="0 0 100 100" fill="none" xmlns="http://www.w3.org/2000/svg">
<path d="M8 30H0V37H8V30Z" fill="#04C7FD"/>
<path d="M7.39304 70.4143V42.1912H0V70.4143H7.39304ZM56.5317 70.6932V63.7769C55.4478 63.7769 54.5306 63.7211 53.8636 63.6096C53.0853 63.498 52.5017 63.2191 52.1126 62.8287C51.7235 62.4382 51.4733 61.8805 51.3344 61.1554C51.2232 60.4582 51.1676 59.5378 51.1676 58.4223V48.5498H56.5317V42.1912H51.1676V31.1753H43.7468V58.4781C43.7468 60.7928 43.9413 62.745 44.3304 64.3068C44.7195 65.8406 45.3866 67.0956 46.3038 68.0438C47.2209 68.992 48.4438 69.6614 49.9169 70.0797C51.4177 70.498 53.3077 70.6932 55.559 70.6932H56.5317ZM99 70.4143V29H91.5792V70.4143H99ZM36.6039 44.9522C34.5472 42.7211 31.6567 41.6056 27.9879 41.6056C26.2092 41.6056 24.5971 41.9681 23.1241 42.6932C21.6788 43.4183 20.4281 44.4223 19.4554 45.7052L19.0385 46.2351V42.1912H11.7288V70.4143H19.094V55.3825V56.4143C19.094 56.247 19.094 56.0797 19.094 55.9123C19.1774 53.2629 19.8167 51.3108 21.0396 50.0558C22.3459 48.7171 23.9301 48.0478 25.7367 48.0478C27.8768 48.0478 29.5166 48.7171 30.6005 50C31.6567 51.2829 32.2125 53.0956 32.2125 55.4104V70.3864H39.6889V54.3785C39.7167 50.3625 38.6606 47.1833 36.6039 44.9522ZM87.7437 56.247C87.7437 54.2112 87.3824 52.3147 86.6875 50.5299C85.9649 48.7729 84.9643 47.2112 83.7136 45.8725C82.4352 44.5339 80.9065 43.502 79.1277 42.749C77.349 41.996 75.3756 41.6335 73.2355 41.6335C71.2066 41.6335 69.2889 42.0239 67.5101 42.7769C65.7313 43.5578 64.1749 44.5896 62.8686 45.9004C61.5623 47.2112 60.5062 48.7729 59.7558 50.5578C58.9775 52.3426 58.6162 54.2669 58.6162 56.3028C58.6162 58.3386 58.9775 60.2629 59.7002 62.0478C60.4228 63.8327 61.4511 65.3944 62.7296 66.7052C64.0081 68.0159 65.5924 69.0757 67.4267 69.8287C69.2611 70.6096 71.29 71 73.4579 71C79.7392 71 83.6303 68.1275 85.9649 65.4502L80.6286 61.3785C79.5168 62.7171 76.8487 64.5299 73.5135 64.5299C71.429 64.5299 69.7058 64.0558 68.3995 63.0797C67.0932 62.1315 66.2038 60.7928 65.7313 59.1474L65.6479 58.8964H87.7437V56.247ZM65.7035 53.6534C65.7035 51.5896 68.066 47.992 73.1522 47.9641C78.2384 47.9641 80.6286 51.5618 80.6286 53.6255L65.7035 53.6534Z" fill="#0068B5"/>
</svg>
