<svg width="100" height="100" viewBox="0 0 100 100" fill="none" xmlns="http://www.w3.org/2000/svg">
<g clip-path="url(#clip0_3_133)">
<path d="M50 99.9211C77.5912 99.9211 100 77.5783 100 49.9715C100 22.3635 77.5912 0 50 0C22.3661 0 0 22.3635 0 49.9715C0 77.5783 22.3661 99.9211 50 99.9211Z" fill="#A50034"/>
<path d="M47.9884 28.0414V71.8797H61.925V67.9379H52.0052V28.0414H47.9884Z" fill="white"/>
<path d="M34.0336 40.0026C37.3493 40.0026 40.022 37.3066 40.022 34.0142C40.022 30.7193 37.3493 28.0129 34.0336 28.0129C30.718 28.0129 28.0453 30.7193 28.0453 34.0142C28.0453 37.3092 30.718 40.0026 34.0336 40.0026Z" fill="white"/>
<path d="M52.0039 8.15524C51.4812 8.12937 50.4877 8.09702 50.0129 8.09702C26.934 8.09702 8.15136 26.8862 8.15136 49.9508C8.15136 61.1539 12.5045 71.6546 20.3894 79.5511C28.3066 87.4295 38.8124 91.7827 50.0129 91.7827C61.1708 91.7827 71.674 87.4295 79.577 79.5511C87.4812 71.6546 91.8551 61.1539 91.8551 49.9508V48.0893H61.9638V51.9418H87.868C87.868 52.0259 87.868 52.4347 87.8499 52.5407C86.533 72.2587 70.0647 87.8758 50.0129 87.8758C39.8629 87.8758 30.3454 83.9288 23.1824 76.7607C15.9961 69.6222 12.0362 60.1125 12.0362 49.9495C12.0362 39.8448 15.9961 30.2859 23.1824 23.1255C30.3454 15.9715 39.8629 12.0246 50.0129 12.0246C50.4502 12.0246 51.5136 12.0246 52.0039 12.0505V8.15524Z" fill="white"/>
</g>
<defs>
<clipPath id="clip0_3_133">
<rect width="100" height="100" fill="white"/>
</clipPath>
</defs>
</svg>
