<svg width="100" height="100" viewBox="0 0 100 100" fill="none" xmlns="http://www.w3.org/2000/svg">
<path d="M15.6486 16.2714C24.8436 6.58498 38.0809 0.957865 51.4368 1.00024C51.4368 7.80532 51.4453 14.6189 51.4368 21.424C42.4114 21.5087 33.4622 25.8477 28.191 33.2375C21.5385 42.1782 20.8605 55.0426 26.5554 64.6274C31.4961 73.4409 41.3944 78.9155 51.4368 78.9663C51.4453 85.7714 51.4453 92.585 51.4368 99.3901C39.6656 99.3986 27.9622 95.0935 19.0808 87.3647C8.58932 78.407 2.14017 64.8647 2.01305 51.0426C1.70796 38.246 6.76729 25.4748 15.6486 16.2714ZM52.0724 41.3477H96.0893C96.0893 56.0596 96.0978 70.7714 96.0809 85.4748C89.3266 85.4663 82.5639 85.4663 75.8097 85.4748C75.7927 77.5511 75.8097 69.6189 75.8012 61.6952C67.8944 61.6867 59.9876 61.6867 52.0809 61.6952C52.0639 54.9155 52.0724 48.1274 52.0724 41.3477Z" fill="#00A7E0"/>
</svg>
