<svg width="100" height="100" viewBox="0 0 100 100" fill="none" xmlns="http://www.w3.org/2000/svg">
<g clip-path="url(#clip0_3_136)">
<path d="M58.9623 100H74.3711C88.522 100 100 88.522 100 74.3711V25.6289C100 11.478 88.522 0 74.3711 0H58.8836C58.4906 0 58.2547 0.314465 58.2547 0.62893V99.2925C58.2547 99.6855 58.5692 100 58.9623 100ZM77.9874 44.8899C83.5692 44.8899 88.1289 49.4497 88.1289 55.0315C88.1289 60.6132 83.5692 65.173 77.9874 65.173C72.4057 65.173 67.8459 60.6132 67.8459 55.0315C67.9245 49.4497 72.4057 44.8899 77.9874 44.8899ZM15.566 30.0314C15.566 35.2201 19.8113 39.4654 25 39.4654C30.1887 39.4654 34.434 35.2201 34.434 30.0314C34.434 24.8428 30.1887 20.5975 25 20.5975C19.7327 20.5975 15.566 24.7642 15.566 30.0314ZM47.4843 0H25.6289C11.478 0 0 11.478 0 25.6289V74.3711C0 88.522 11.478 100 25.6289 100H47.4843C47.8774 100 48.1918 99.6855 48.1918 99.2925V0.707545C48.1918 0.314464 47.8774 0 47.4843 0ZM40.173 91.9811H25.6289C20.9119 91.9811 16.5094 90.173 13.2075 86.7925C9.90566 83.4906 8.01887 79.0881 8.01887 74.3711V25.6289C8.01887 20.912 9.82704 16.5094 13.2075 13.2075C16.5094 9.90566 20.9119 8.01887 25.6289 8.01887H40.173V91.9811Z" fill="#E60012"/>
</g>
<defs>
<clipPath id="clip0_3_136">
<rect width="100" height="100" fill="white"/>
</clipPath>
</defs>
</svg>
