<svg width="100" height="100" viewBox="0 0 100 100" fill="none" xmlns="http://www.w3.org/2000/svg">
<path d="M100 33H0V66.3333H100V33Z" fill="#E60012"/>
<path d="M18.4944 60.1778C11.8039 60.1756 7.33333 55.4342 7.33333 49.6854C7.33333 43.9366 11.8141 39.1408 18.4842 39.1556H81.5158C88.1859 39.1408 92.6667 43.9366 92.6667 49.6854C92.6667 55.4342 88.1961 60.1756 81.5056 60.1778H18.4944ZM18.5148 41.7415C13.2181 41.7517 9.96693 45.2919 9.96693 49.6718C9.96693 54.0505 13.1977 57.6202 18.5148 57.6009H81.4852C86.8023 57.619 90.0342 54.0505 90.0342 49.6718C90.0342 45.293 86.783 41.7529 81.4864 41.7427L18.5148 41.7415ZM84.8724 45.4381C85.354 45.4381 85.5931 45.6013 85.5931 45.9242C85.5931 46.1464 85.4549 46.3141 85.2248 46.3719L85.6022 47.1254H85.1455L84.8226 46.4342H84.622V47.1254H84.2106V45.4381H84.8724ZM84.835 44.7786C83.9942 44.7786 83.312 45.4608 83.312 46.3016C83.312 47.1425 83.9942 47.8246 84.835 47.8246C85.6759 47.8246 86.3581 47.1425 86.3581 46.3016C86.3581 45.4608 85.6759 44.7786 84.835 44.7786ZM86.0668 46.3027C86.0668 46.9827 85.5149 47.5345 84.835 47.5345C84.1551 47.5345 83.6032 46.9827 83.6032 46.3027C83.6032 45.6228 84.1551 45.0709 84.835 45.0709C85.5149 45.0709 86.0668 45.6217 86.0668 46.3027ZM84.622 46.1871H84.8226C85.0571 46.1871 85.1705 46.1158 85.1705 45.948C85.1705 45.7724 85.0492 45.6965 84.8022 45.6965H84.622V46.1871ZM50.1994 50.3109C50.1949 49.7341 50.2074 49.3488 50.3966 49.0202C50.6289 48.6145 51.0562 48.4219 51.4437 48.4196H51.4426C51.8301 48.4219 52.2573 48.6145 52.4896 49.0202C52.6789 49.3499 52.6868 49.7352 52.6823 50.3121L50.1994 50.3109ZM52.6721 52.2952C52.6721 52.2952 52.6744 52.3246 52.6744 52.6941C52.6744 53.8975 51.8823 54.165 51.4426 54.165C51.0029 54.165 50.1972 53.8975 50.1972 52.6941C50.1972 52.3337 50.1994 51.3354 50.1994 51.3354C50.1994 51.3354 55.8055 51.3376 55.8055 51.3342C55.8055 49.2933 53.8348 47.6025 51.4143 47.6025C48.9937 47.6025 47.0321 49.257 47.0321 51.2979C47.0321 53.3388 48.9937 54.9922 51.4143 54.9922C53.4223 54.9922 55.1187 53.8465 55.6366 52.2929L52.6721 52.2952ZM62.0359 47.7125C63.1487 47.6807 65.4061 48.4094 65.3902 51.0146C65.3879 51.477 65.389 54.5956 65.389 54.5956H62.4325C62.4325 54.5956 62.4325 50.6849 62.4325 50.2735C62.4325 49.7001 61.884 49.0621 61.0726 49.0621C60.2624 49.0621 59.6595 49.7001 59.6595 50.2735C59.6595 50.5546 59.6629 54.5956 59.6629 54.5956H56.7086L56.7109 48.015L59.664 48.0128C59.664 48.0128 59.6606 48.542 59.664 48.7052C60.2329 48.1623 61.0534 47.7408 62.0359 47.7125ZM37.8508 47.7125C38.9636 47.6807 41.221 48.4094 41.2051 51.0146C41.2029 51.477 41.204 54.5956 41.204 54.5956H38.2474C38.2474 54.5956 38.2474 50.6849 38.2474 50.2735C38.2474 49.7001 37.6989 49.0621 36.8875 49.0621C36.0773 49.0621 35.4744 49.7001 35.4744 50.2735C35.4744 50.5546 35.4778 54.5956 35.4778 54.5956H32.5235L32.5224 48.015L35.4789 48.0128C35.4789 48.0128 35.4755 48.542 35.4789 48.7052C36.0478 48.1623 36.8672 47.7408 37.8508 47.7125ZM71.8042 44.7015H74.7415V54.5979H71.7997C71.7997 54.5979 71.7985 54.2783 71.7985 54.2171C70.6596 54.9322 69.3745 54.931 68.3739 54.4642C68.1053 54.3395 66.3387 53.4918 66.3387 51.2016C66.3387 49.4644 67.9773 47.5674 70.1225 47.7555C70.8285 47.8178 71.3305 48.0751 71.8064 48.3425C71.8042 46.8195 71.8042 44.7015 71.8042 44.7015ZM71.8257 51.2742C71.8257 51.2742 71.8257 50.4492 71.8257 50.0979C71.8257 49.0802 71.1231 48.8207 70.6608 48.8207C70.1871 48.8207 69.4936 49.0802 69.4936 50.0979C69.4936 50.4356 69.4947 51.2708 69.4947 51.2708C69.4947 51.2708 69.4936 52.0912 69.4936 52.4414C69.4936 53.4579 70.1871 53.7242 70.6596 53.7242C71.1231 53.7242 71.8269 53.4579 71.8269 52.4414C71.8269 52.0187 71.8257 51.2742 71.8257 51.2742ZM81.2552 51.2549C81.2552 51.2549 81.254 52.2499 81.254 52.6487C81.254 53.6981 80.6342 54.131 80.0381 54.131C79.4409 54.131 78.8187 53.6981 78.8187 52.6487C78.8187 52.2499 78.8199 51.23 78.8199 51.23C78.8199 51.23 78.8222 50.2565 78.8222 49.8576C78.8222 48.8128 79.4455 48.3833 80.0381 48.3833C80.6319 48.3833 81.2541 48.8128 81.2541 49.8576C81.2541 50.2565 81.2529 50.9942 81.2563 51.2583L81.2552 51.2549ZM80.0597 47.5674C77.6572 47.5674 75.7104 49.2219 75.7104 51.2628C75.7104 53.3037 77.6584 54.9582 80.0597 54.9582C82.4621 54.9582 84.4089 53.3037 84.4089 51.2628C84.4089 49.2219 82.4621 47.5674 80.0597 47.5674ZM27.9012 46.722V44.6992H30.8838V46.722H27.9012ZM27.908 54.5979V48.0162L30.8838 48.0173V54.5979L27.908 54.5979ZM42.8381 54.5979L42.8393 48.0298H41.221V47.0529L42.8404 47.0518L42.8381 45.7191H45.8162V47.0506H47.4276V48.0297H45.8162L45.8185 54.5978L42.8381 54.5979ZM15.7973 54.5979L15.7985 44.7015H18.8819L23.1473 51.6028L23.1451 44.7015H26.2048V54.5979H23.1496L18.8615 47.6966V54.5979H15.7973Z" fill="white"/>
</svg>
