<svg width="100" height="100" viewBox="0 0 100 100" fill="none" xmlns="http://www.w3.org/2000/svg">
<path d="M69.1259 38.7156V60.8138H72.44V38.7156H69.1259ZM33.7189 38.3381C27.2625 38.338 22.2531 43.0372 22.2531 49.7647C22.2531 56.7951 27.2625 61.1915 33.7189 61.1914C40.1752 61.1912 45.1949 56.7951 45.1847 49.7647C45.1753 43.3907 40.1752 38.3381 33.7189 38.3381ZM41.8765 49.7647C41.8765 54.7451 38.2242 58.0455 33.7189 58.0455C29.2135 58.0455 25.5612 54.7451 25.5612 49.7647C25.5612 44.8747 29.2135 41.4839 33.7189 41.4839C38.2242 41.4839 41.8765 44.8747 41.8765 49.7647ZM0 38V60.8138H3.38231V45.7371L20.9587 61.5294V56.7995L0 38ZM47.6772 49.7647L59.9771 60.8139H64.9088L52.5905 49.7647L64.9088 38.7156H59.9771L47.6772 49.7647ZM100 60.8138H96.3541L93.6882 55.9202H81.6129L78.9465 60.8138H75.3006L79.7159 52.6574H91.9541L85.8518 41.3223L87.6506 38L100 60.8138Z" fill="#005AFF"/>
</svg>
