<svg width="100" height="100" viewBox="0 0 100 100" fill="none" xmlns="http://www.w3.org/2000/svg">
<mask id="mask0_10_156" style="mask-type:luminance" maskUnits="userSpaceOnUse" x="0" y="24" width="100" height="44">
<path d="M86.0549 35.7052C77.5289 35.7052 71.4595 41.4856 70.737 49.9393H67.9913C66.9798 49.9393 66.3295 50.5173 66.3295 51.5289C66.3295 52.5405 66.9798 53.1185 67.9913 53.1185H70.737C71.3873 61.789 77.6012 67.3526 87.0665 67.3526C90.9682 67.3526 94.0751 66.7746 96.7486 65.474C97.3988 65.185 98.1214 64.6069 97.9769 63.5231C97.9046 63.0896 97.6879 62.7283 97.3266 62.5116C96.8931 62.2225 96.315 62.2225 95.5925 62.4393C95.0867 62.5838 94.5809 62.8006 94.1474 62.9451C92.4133 63.5231 90.9682 64.1012 87.5 64.1012C80.2023 64.1012 75.3613 59.8382 75.2168 53.263V53.1908H97.9046C99.2052 53.1908 99.9277 52.5405 100 51.2399V51.0231C99.8555 36.789 89.3064 35.7052 86.0549 35.7052ZM95.9538 49.9393H75.1445V49.7948C75.6503 43.2197 79.9855 38.9566 86.1994 38.9566C90.896 38.9566 95.9538 41.7746 95.9538 49.7948V49.9393ZM39.7399 38.2341C39.7399 36.8613 38.9451 35.9942 37.5723 35.9942C36.1994 35.9942 35.4046 36.789 35.4046 38.2341V49.8671H39.7399V38.2341ZM57.5867 54.1301C57.5867 59.6214 53.6127 63.9566 48.6272 63.9566C42.6301 63.9566 39.7399 60.7775 39.7399 54.2746V53.1185H35.4046V54.5636C35.4046 63.0173 39.3786 67.3526 47.3266 67.3526C52.0231 67.3526 55.4191 65.3295 57.5145 61.3555L57.5867 61.211V64.8237C57.5867 66.1965 58.3815 67.0636 59.7543 67.0636C61.1272 67.0636 61.922 66.2688 61.922 64.8237V53.1185H57.5867V54.1301ZM59.7543 36.0665C58.3815 36.0665 57.5867 36.8613 57.5867 38.3064V49.9393H61.922V38.2341C61.922 36.8613 61.1272 36.0665 59.7543 36.0665ZM15.1734 35.7052C8.23699 35.7052 5.56358 40.185 4.91329 41.5578L4.33526 42.6416V26.3121C4.33526 24.8671 3.46821 24 2.16763 24C0.794798 24 0 24.8671 0 26.3121V49.8671H4.33526V49.7948C4.33526 44.5925 7.36994 39.0289 13.9451 39.0289C19.2919 39.0289 22.2543 42.4971 22.2543 48.711V49.8671H26.5896V48.8555C26.5896 40.4017 22.5434 35.7052 15.1734 35.7052ZM0 64.6792C0 66.1243 0.794798 66.9913 2.16763 66.9913C3.46821 66.9913 4.33526 66.1243 4.33526 64.6792V53.1185H0V64.6792ZM22.2543 64.6792C22.2543 66.1243 23.0491 66.9913 24.422 66.9913C25.7225 66.9913 26.5896 66.1243 26.5896 64.6792V53.1185H22.2543V64.6792Z" fill="white"/>
</mask>
<g mask="url(#mask0_10_156)">
<path d="M0 14.8031H99.9277V82.4332H0V14.8031Z" fill="url(#paint0_linear_10_156)"/>
</g>
<defs>
<linearGradient id="paint0_linear_10_156" x1="7.62861e-05" y1="48.5762" x2="99.9048" y2="48.5762" gradientUnits="userSpaceOnUse">
<stop stop-color="#ED1C24"/>
<stop offset="0.0537326" stop-color="#EF4423"/>
<stop offset="0.1314" stop-color="#F26522"/>
<stop offset="0.1732" stop-color="#F37021"/>
<stop offset="0.1857" stop-color="#F47521"/>
<stop offset="0.2678" stop-color="#F8941F"/>
<stop offset="0.3316" stop-color="#FAA81C"/>
<stop offset="0.3688" stop-color="#FCAF1A"/>
<stop offset="0.4089" stop-color="#EFB320"/>
<stop offset="0.4855" stop-color="#D2BB2B"/>
<stop offset="0.5898" stop-color="#9CC33C"/>
<stop offset="0.6117" stop-color="#8DC63F"/>
<stop offset="0.6812" stop-color="#71BA64"/>
<stop offset="0.7752" stop-color="#43AF8D"/>
<stop offset="0.8198" stop-color="#26AB9A"/>
<stop offset="0.8555" stop-color="#1DA29F"/>
<stop offset="0.9265" stop-color="#008AA7"/>
<stop offset="1" stop-color="#006EAB"/>
</linearGradient>
</defs>
</svg>
