<svg width="100" height="100" viewBox="0 0 100 100" fill="none" xmlns="http://www.w3.org/2000/svg">
<path d="M11 2.14729C11 2.14729 27.1343 0 50.4684 0C73.9463 0 89.5276 2.14729 89.5276 2.14729V60.2249C89.5276 83.049 71.7964 100 50.2638 100C28.5514 100 11 82.8202 11 60.7363V2.14729Z" fill="#0B5ED8"/>
<path d="M39.8203 9.53949H36.171V14.2924H32.3718V9.53949H28.722V21.4967H32.3718V16.7936H36.171V21.4967H39.8203V9.53949ZM52.5175 19.0947V9.53949H48.8681V21.4967H55.4673L56.0167 19.0947H52.5175ZM46.1689 9.53949H42.5196V21.4969H46.1689V9.53949ZM60.966 9.53949H57.3171V21.4969H60.966V9.53949ZM78.9612 12.5911C78.9612 11.941 79.612 11.6404 80.6606 11.6404C81.8106 11.6404 83.0614 11.8907 83.9105 12.2423L83.6111 9.63991C82.6604 9.43974 81.8106 9.2897 80.2614 9.2897C77.3116 9.2897 75.3128 10.4533 75.3128 12.8922C75.3128 17.0935 81.0125 16.2437 81.0125 18.1948C81.0125 18.9446 80.4616 19.3443 79.111 19.3443C77.9133 19.3443 76.0621 18.9446 74.9626 18.3943L75.3638 21.1467C76.4625 21.547 77.9622 21.7465 79.1625 21.7465C82.2111 21.7465 84.7111 20.7456 84.7111 17.7436C84.7111 13.7427 78.9612 14.4924 78.9612 12.5911ZM68.6656 18.6447C72.0624 18.6447 74.2127 16.8934 74.2127 13.8424C74.2127 10.4902 71.9137 9.2897 68.1644 9.2897C66.7146 9.2897 64.9641 9.38945 63.7146 9.53949V21.4967H67.3654V18.6447H68.6656ZM70.6134 13.8919C70.6134 15.4431 69.8643 16.4937 67.964 16.4937H67.5205V11.5532C67.7322 11.5413 67.7766 11.5413 67.964 11.5413C69.7631 11.5413 70.6134 12.3914 70.6134 13.8919ZM21.724 18.6447C25.1234 18.6447 27.2728 16.8934 27.2728 13.8424C27.2728 10.4902 24.9732 9.2897 21.2242 9.2897C19.7743 9.2897 18.0244 9.38945 16.775 9.53949V21.4967H20.4237V18.6447H21.724ZM23.6742 13.8919C23.6742 15.4431 22.924 16.4937 21.0242 16.4937H20.588V11.5532C20.8015 11.5413 20.8365 11.5413 21.0242 11.5413C22.823 11.5413 23.6742 12.3914 23.6742 13.8919Z" fill="white"/>
<path d="M16.4466 64.9449C16.3413 63.9899 16.2322 62.0286 16.2092 60.7453C19.1423 62.2671 23.5413 64.0684 30.0586 64.0684C45.8597 64.0684 52.9962 52.2275 68.5482 52.2275C74.9428 52.2275 80.3561 54.0675 84.0135 56.3357C84.1722 57.7508 84.2189 59.1659 84.2782 60.5809C80.1073 58.5328 75.7832 57.3127 70.438 57.3127C54.4542 57.3127 47.936 69.0714 31.9118 69.0714C25.7183 69.0714 20.5676 67.4839 16.4466 64.9449Z" fill="white"/>
<path d="M16.5173 56.4655C17.0573 51.7612 18.3817 48.2485 20.5001 44.2668L27.5663 45.1706C28.9044 45.3449 29.8726 45.6262 30.5222 46.3398C31.146 47.0405 31.4188 47.458 31.7951 50.0904L32.8453 58.3374C32.8453 58.3374 30.6975 58.7107 28.0227 58.7369C23.3886 58.7369 19.1903 57.5465 16.5173 56.4655ZM21.2104 43.0446C23.7034 38.9246 27.412 34.8373 32.5075 31.754L31.6654 38.1227C31.4764 39.4944 31.3306 40.1588 30.6017 41.0122C29.9843 41.6964 28.9559 41.9631 27.7507 42.1825L21.2104 43.0446ZM34.1759 35.0643L33.6921 31.0291C35.7907 29.8429 38.4218 28.6649 41.443 27.9069L40.8495 32.4259C40.5945 33.8504 39.9844 34.2962 38.4669 34.5257L34.1759 35.0643ZM41.416 42.5863L37.659 42.0376C35.8847 41.6672 34.8875 40.4281 34.6295 38.2008L34.2591 35.5208L38.7177 36.1501C40.1883 36.3136 40.7102 37.0324 40.9061 38.6033L41.416 42.5863Z" fill="white"/>
<path d="M33.5016 58.2021L34.4042 50.5113C34.9518 46.6847 35.4505 45.7004 38.6768 45.1888L47.7971 43.9837V43.3721L41.9451 42.6599L42.5202 38.2047C42.6675 36.9063 43.2726 36.3157 44.903 36.1141L49.6503 35.4751V35.1281L44.5926 34.4709C43.1372 34.2325 42.6746 33.6217 42.5019 32.2889L41.9084 27.7972C41.9084 27.7972 45.4092 26.7381 50.2528 26.7381C69.0703 26.7381 80.2511 40.9629 82.9817 51.3693C80.118 49.5134 74.2829 46.832 67.2699 46.832C53.0781 46.8322 45.8761 55.8695 33.5016 58.2021ZM50.2438 94.7844C35.8563 94.7844 22.2056 85.8096 17.4783 69.9844C21.6406 72.6129 27.62 74.5399 33.3908 74.5399C48.418 74.5399 55.6964 64.9842 66.9475 62.9856L65.7597 72.2944C65.3435 74.6972 64.6837 75.7398 61.796 76.2193L52.5646 77.3943V78.0269L61.2278 79.1242C64.1014 79.4339 65.4392 80.3854 65.7466 83.2171L66.7149 90.5118C63.8753 92.212 57.8245 94.7844 50.2437 94.7844H50.2438ZM67.8512 89.9178L68.5743 84.095C69.0505 80.8086 69.5781 79.621 72.7703 79.2146L79.3905 78.3603C76.0389 83.7794 72.3076 87.041 67.8512 89.9178H67.8512ZM80.0649 77.2006L73.3771 76.3226C69.9344 75.9199 69.0765 75.0741 68.6387 71.7263L67.5027 62.8952C67.5027 62.8952 69.7909 62.5078 72.3959 62.5078C76.2836 62.5078 81.5799 63.7572 84.0416 64.8447C83.467 68.9634 82.6989 72.3073 80.0649 77.2006Z" fill="white"/>
<path d="M58.6237 92.4225H58.9024L59.3999 88.6664C59.6352 87.1342 60.2241 87.0165 61.3053 86.8192L64.972 86.3544V86.0704L61.027 85.5631C59.9835 85.4012 59.5806 84.8527 59.4187 83.9436L58.9184 80.0151H58.6215L58.1073 84.0143C57.8998 84.9803 57.5221 85.3673 56.4767 85.541L52.5518 86.0704V86.3544L56.3284 86.838C57.5751 86.9978 58.0329 87.5758 58.1627 88.7599L58.6237 92.4225Z" fill="#0B5ED8"/>
</svg>
