<svg width="100" height="100" viewBox="0 0 100 100" fill="none" xmlns="http://www.w3.org/2000/svg">
<path d="M31.9965 0.230042C31.4939 0.245642 30.9525 0.431338 30.3385 0.915806C28.8348 0.335765 27.3764 0.134252 26.0721 1.31511C24.059 1.0539 23.404 1.59299 22.908 2.22223C22.466 2.21308 19.5998 1.76778 18.2856 3.72831C14.9826 3.33755 13.9388 5.67107 15.1215 7.84723C14.447 8.89153 13.748 9.92323 15.3255 11.9141C14.7675 13.0229 15.1134 14.2257 16.428 15.6814C16.081 17.2401 16.763 18.3399 17.9861 19.1971C17.7574 21.3301 19.9422 22.5703 20.5946 23.0122C20.8451 24.255 21.3672 25.4278 23.8629 26.0764C24.2744 27.9286 25.7742 28.2485 27.2266 28.6372C22.4263 31.4274 18.3098 35.0986 18.3377 44.1059L17.6346 45.3603C12.1303 48.7078 7.17826 59.4667 14.9219 68.2118C15.4277 70.9491 16.276 72.9151 17.0313 75.0912C18.161 83.8593 25.5337 87.965 27.4783 88.4505C30.3278 90.6211 33.3628 92.6806 37.4696 94.1233C41.3412 98.1163 45.5354 99.6381 49.7526 99.6354C49.8144 99.6354 49.8774 99.6361 49.9392 99.6354C54.1564 99.6381 58.3507 98.1163 62.2222 94.1233C66.3291 92.6806 69.364 90.6211 72.2136 88.4505C74.1581 87.965 81.5309 83.8593 82.6606 75.0912C83.4159 72.9151 84.2642 70.9491 84.77 68.2118C92.5136 59.4667 87.5616 48.7078 82.0573 45.3603L81.3542 44.1059C81.382 35.0986 77.2656 31.4274 72.4653 28.6372C73.9176 28.2485 75.4174 27.9286 75.829 26.0764C78.3246 25.4278 78.8467 24.255 79.0972 23.0122C79.7497 22.5703 81.9345 21.3301 81.7057 19.1971C82.9289 18.3399 83.6108 17.2401 83.2639 15.6814C84.5785 14.2257 84.9244 13.0229 84.3663 11.9141C85.9439 9.92323 85.2449 8.89153 84.5703 7.84723C85.753 5.67107 84.7093 3.33755 81.4063 3.72831C80.092 1.76778 77.2259 2.21308 76.7839 2.22223C76.2879 1.59299 75.6328 1.0539 73.6198 1.31511C72.3154 0.134252 70.8571 0.335765 69.3533 0.915806C67.5673 -0.493557 66.3849 0.636182 65.0347 1.06338C62.8717 0.35674 62.3774 1.32461 61.3151 1.71876C58.9574 1.22041 58.2407 2.30536 57.1094 3.45053L55.7943 3.42449C52.2373 5.52075 50.4701 9.78914 49.8438 11.9835C49.2171 9.7888 47.454 5.52038 43.8976 3.42449L42.5825 3.45053C41.4511 2.30536 40.7344 1.22041 38.3767 1.71876C37.3145 1.32461 36.8202 0.35674 34.6571 1.06338C33.771 0.78303 32.9562 0.200261 31.9965 0.230042Z" fill="black"/>
<path d="M24.9155 9.45217C34.3527 14.3176 39.8387 18.2534 42.8443 21.6056C41.3051 27.7747 33.2754 28.0562 30.3393 27.8832C30.9405 27.6033 31.4421 27.2682 31.62 26.7532C30.8832 26.2296 28.271 26.698 26.4473 25.6734C27.1478 25.5283 27.4755 25.3869 27.8032 24.8699C26.0802 24.3204 24.2242 23.8468 23.1327 22.9364C23.7217 22.9437 24.2717 23.0682 25.0411 22.5347C23.4978 21.703 21.8509 21.0439 20.5714 19.7725C21.3694 19.753 22.2297 19.7646 22.4798 19.4712C21.0673 18.5961 19.8755 17.6229 18.889 16.5584C20.0057 16.6932 20.4773 16.5771 20.7472 16.3826C19.6795 15.289 18.3281 14.3655 17.6837 13.0178C18.5129 13.3036 19.2714 13.413 19.8181 12.9927C19.4553 12.1742 17.9007 11.6914 17.0058 9.77861C17.8786 9.86324 18.8043 9.96904 18.9895 9.77861C18.5836 8.12742 17.8884 7.19944 17.2067 6.23805C19.0747 6.21031 21.905 6.24532 21.7767 6.08739L20.6217 4.9072C22.4463 4.41592 24.3134 4.98611 25.6688 5.40941C26.2774 4.92918 25.6581 4.32191 24.9155 3.70191C26.4662 3.90894 27.8674 4.26543 29.1341 4.75654C29.8108 4.14552 28.6946 3.5345 28.1548 2.92349C30.5505 3.37801 31.5655 4.01664 32.5742 4.6561C33.306 3.9546 32.6161 3.35842 32.1222 2.74771C33.9285 3.41675 34.859 4.28043 35.8385 5.1332C36.1706 4.68499 36.6823 4.35647 36.0645 3.27503C37.347 4.0143 38.313 4.88546 39.0275 5.86139C39.821 5.35613 39.5003 4.66514 39.5046 4.02834C40.8375 5.11258 41.6834 6.26639 42.7187 7.39313C42.9273 7.24126 43.1099 6.72622 43.2712 5.91162C46.4511 8.99659 50.9442 16.7669 44.4262 19.8478C38.882 15.2719 32.2573 11.9468 24.9155 9.45217Z" fill="#75A928"/>
<path d="M74.9896 9.45217C65.5524 14.3176 60.0664 18.2534 57.0608 21.6056C58.6 27.7747 66.6297 28.0562 69.5657 27.8832C68.9646 27.6033 68.463 27.2682 68.2851 26.7532C69.0218 26.2296 71.6341 26.698 73.4578 25.6734C72.7573 25.5283 72.4296 25.3869 72.1019 24.8699C73.8249 24.3204 75.6808 23.8468 76.7724 22.9364C76.1833 22.9437 75.6333 23.0682 74.864 22.5347C76.4073 21.703 78.0542 21.0439 79.3336 19.7725C78.5357 19.753 77.6754 19.7646 77.4253 19.4712C78.8378 18.5961 80.0296 17.6229 81.016 16.5584C79.8994 16.6932 79.4278 16.5771 79.1579 16.3826C80.2256 15.289 81.577 14.3655 82.2213 13.0178C81.3922 13.3036 80.6337 13.413 80.087 12.9927C80.4498 12.1742 82.0044 11.6914 82.8993 9.77861C82.0265 9.86324 81.1008 9.96904 80.9156 9.77861C81.3215 8.12742 82.0166 7.19944 82.6984 6.23805C80.8304 6.21031 78.0001 6.24532 78.1284 6.08739L79.2834 4.9072C77.4588 4.41592 75.5917 4.98611 74.2363 5.40941C73.6277 4.92918 74.247 4.32191 74.9896 3.70191C73.4389 3.90894 72.0376 4.26543 70.771 4.75654C70.0943 4.14552 71.2105 3.5345 71.7503 2.92349C69.3546 3.37801 68.3396 4.01664 67.3309 4.6561C66.5991 3.9546 67.289 3.35842 67.7829 2.74771C65.9766 3.41675 65.0461 4.28043 64.0666 5.1332C63.7345 4.68499 63.2228 4.35647 63.8406 3.27503C62.5581 4.0143 61.5921 4.88546 60.8776 5.86139C60.084 5.35613 60.4048 4.66514 60.4005 4.02834C59.0676 5.11258 58.2217 6.26639 57.1863 7.39313C56.9778 7.24126 56.7951 6.72622 56.6339 5.91162C53.454 8.99659 48.9609 16.7669 55.4788 19.8478C61.0231 15.2719 67.6477 11.9468 74.9896 9.45217Z" fill="#75A928"/>
<path d="M61.3814 72.2724C61.3814 75.037 60.1905 77.6883 58.0705 79.6432C55.9506 81.598 53.0753 82.6962 50.0773 82.6962C47.0792 82.6962 44.2039 81.598 42.084 79.6432C39.964 77.6883 38.7731 75.037 38.7731 72.2724C38.7731 69.5078 39.964 66.8564 42.084 64.9016C44.2039 62.9467 47.0792 61.8485 50.0773 61.8485C53.0753 61.8485 55.9506 62.9467 58.0705 64.9016C60.1905 66.8564 61.3814 69.5078 61.3814 72.2724Z" fill="#BC1142"/>
<path d="M43.5353 42.4948C45.7846 43.9684 47.2469 46.4332 47.6006 49.3468C47.9542 52.2605 47.1703 55.3843 45.4212 58.0312C43.6721 60.6781 41.1011 62.6311 38.2738 63.4607C35.4466 64.2903 32.5946 63.9285 30.3453 62.4548C28.096 60.9812 26.6337 58.5164 26.28 55.6028C25.9263 52.6891 26.7103 49.5653 28.4594 46.9184C30.2085 44.2715 32.7795 42.3185 35.6067 41.4889C38.434 40.6593 41.286 41.0211 43.5353 42.4948Z" fill="#BC1142"/>
<path d="M56.1787 41.9392C53.9294 43.4129 52.467 45.8776 52.1134 48.7913C51.7597 51.7049 52.5436 54.8288 54.2927 57.4756C56.0418 60.1225 58.6128 62.0756 61.4401 62.9052C64.2674 63.7347 67.1194 63.3729 69.3686 61.8993C71.6179 60.4256 73.0802 57.9609 73.4339 55.0472C73.7876 52.1336 73.0037 49.0097 71.2546 46.3629C69.5055 43.716 66.9345 41.7629 64.1072 40.9333C61.2799 40.1038 58.4279 40.4656 56.1787 41.9392Z" fill="#BC1142"/>
<path d="M20.1264 47.5122C25.1839 46.1571 21.8336 68.4339 17.719 66.6061C13.1931 62.9654 11.7352 52.3039 20.1264 47.5122Z" fill="#BC1142"/>
<path d="M78.5664 47.2344C73.5089 45.8793 76.8593 68.1562 80.9738 66.3283C85.4998 62.6876 86.9576 52.0261 78.5664 47.2344Z" fill="#BC1142"/>
<path d="M61.3849 30.6463C70.112 29.1727 77.3733 34.3577 77.081 43.821C76.7939 47.449 58.17 31.1864 61.3849 30.6463Z" fill="#BC1142"/>
<path d="M37.2722 30.3685C28.5451 28.8949 21.2839 34.08 21.5762 43.5433C21.8632 47.1712 40.4871 30.9087 37.2722 30.3685Z" fill="#BC1142"/>
<path d="M49.8082 28.1605C44.5995 28.025 39.6005 32.0264 39.5886 34.3472C39.574 37.1673 43.7068 40.0546 49.8437 40.1278C56.1108 40.1727 60.1098 37.8167 60.13 34.9064C60.1529 31.6092 54.4302 28.1096 49.8082 28.1605Z" fill="#BC1142"/>
<path d="M50.1263 85.9884C54.6676 85.7902 60.7611 87.4512 60.7731 89.6546C60.8484 91.7942 55.2467 96.6282 49.825 96.5348C44.2101 96.777 38.7043 91.9354 38.7764 90.2572C38.6924 87.7967 45.6134 85.8755 50.1263 85.9884Z" fill="#BC1142"/>
<path d="M33.3526 72.9311C36.5858 76.8263 38.0596 83.6698 35.3614 85.6871C32.8088 87.2271 26.6097 86.5929 22.2036 80.2633C19.2321 74.952 19.6151 69.5471 21.7014 67.9592C24.8215 66.0586 29.6422 68.6258 33.3526 72.9311Z" fill="#BC1142"/>
<path d="M66.2529 71.6961C62.7547 75.7935 60.8068 83.2668 63.3588 85.6742C65.7988 87.5442 72.3489 87.2828 77.1873 80.5693C80.7006 76.0603 79.5235 68.5301 77.5166 66.5311C74.5355 64.2252 70.2559 67.1762 66.2529 71.6961Z" fill="#BC1142"/>
</svg>
