<svg width="100" height="100" viewBox="0 0 100 100" fill="none" xmlns="http://www.w3.org/2000/svg">
<g clip-path="url(#clip0_3_124)">
<path d="M99.9379 39.9051C101.3 47.7117 80.0478 57.9352 52.4644 62.7394C24.8842 67.5435 1.4216 65.1057 0.0615379 57.2958C-1.29742 49.4881 19.9603 39.2679 47.5405 34.4649C75.1217 29.6586 98.58 32.0963 99.9379 39.9051Z" fill="#034EA2"/>
<path d="M73.9793 51.4942L73.8376 43.3767H76.3974V53.6079H72.7171L70.1628 45.2113H70.1079L70.2496 53.6079H67.7064V43.3767H71.546L73.9222 51.4942H73.9793Z" fill="white"/>
<path d="M27.4507 44.3347L26.0346 53.7155H23.2431L25.1601 43.3767H29.7588L31.6671 53.7155H28.8865L27.5089 44.3347H27.4507Z" fill="white"/>
<path d="M38.1685 53.7155L36.4394 44.4203H36.3833L36.3185 53.7155H33.7291L33.9576 43.3767H38.1762L39.4528 51.28H39.5077L40.7854 43.3767H45.0018L45.2259 53.7155H42.642L42.5739 44.4203H42.5201L40.792 53.7155H38.1685Z" fill="white"/>
<path d="M18.8894 50.7988C18.9904 51.0492 18.9597 51.3711 18.9124 51.5656C18.8256 51.9094 18.5927 52.2599 17.905 52.2599C17.2568 52.2599 16.8635 51.8886 16.8635 51.3206V50.3198H14.0907L14.0885 51.1207C14.0885 53.4255 15.9034 54.1209 17.8479 54.1209C19.7177 54.1209 21.2579 53.4815 21.5029 51.7589C21.6281 50.8658 21.5348 50.2813 21.4919 50.0605C21.0558 47.8963 17.1316 47.2503 16.8394 46.0397C16.7899 45.832 16.8042 45.6123 16.8284 45.4948C16.8998 45.1652 17.1261 44.8016 17.7732 44.8016C18.3774 44.8016 18.7344 45.1751 18.7344 45.7398C18.7344 45.9298 18.7344 46.378 18.7344 46.378H21.3128V45.6519C21.3128 43.3998 19.2914 43.0482 17.827 43.0482C15.988 43.0482 14.4851 43.6557 14.2104 45.3388C14.1357 45.8035 14.1248 46.2176 14.2335 46.7362C14.685 48.8488 18.3576 49.4607 18.8894 50.7988Z" fill="white"/>
<path d="M52.5085 50.7801C52.6106 51.0284 52.5777 51.3415 52.5315 51.5359C52.4469 51.8787 52.2162 52.2236 51.5329 52.2236C50.8935 52.2236 50.5035 51.8523 50.5035 51.2975L50.5013 50.3055H47.7571L47.7538 51.0954C47.7538 53.3772 49.5522 54.066 51.4769 54.066C53.3269 54.066 54.8529 53.4354 55.0934 51.7282C55.2187 50.8416 55.1297 50.2649 55.0847 50.0484C54.6507 47.904 50.7661 47.2646 50.4772 46.066C50.4277 45.8595 50.442 45.642 50.4673 45.531C50.5409 45.1992 50.7628 44.8444 51.4033 44.8444C52.002 44.8444 52.3514 45.2091 52.3514 45.7694C52.3514 45.9573 52.3514 46.4011 52.3514 46.4011H54.91V45.6826C54.91 43.4547 52.9051 43.1053 51.4549 43.1053C49.6367 43.1053 48.1459 43.7052 47.8768 45.3761C47.8021 45.8342 47.7944 46.2407 47.901 46.757C48.3459 48.8477 51.9822 49.4552 52.5085 50.7801Z" fill="white"/>
<path d="M61.1928 52.1687C61.9102 52.1687 62.1343 51.6722 62.1838 51.4184C62.2047 51.3063 62.2101 51.1569 62.2079 51.0229V43.3723H64.8226V50.7889C64.8281 50.9789 64.8094 51.37 64.8006 51.4678C64.6172 53.398 63.0912 54.0242 61.1917 54.0242C59.2901 54.0242 57.763 53.398 57.5818 51.4678C57.573 51.37 57.5543 50.9789 57.5598 50.7889V43.3723H60.1723V51.0229C60.1723 51.1569 60.1766 51.3074 60.1964 51.4184C60.2524 51.6722 60.47 52.1687 61.1928 52.1687Z" fill="white"/>
<path d="M82.7604 52.06C83.5096 52.06 83.7711 51.5865 83.8195 51.3107C83.8381 51.1921 83.8436 51.0481 83.8425 50.9174V49.4167H82.7813V47.9073H86.4473V50.6823C86.4451 50.8757 86.4407 51.0185 86.4099 51.3634C86.2375 53.2442 84.606 53.9155 82.7736 53.9155C80.9378 53.9155 79.3086 53.2442 79.134 51.3634C79.1043 51.0185 79.0999 50.8757 79.0966 50.6823L79.0988 46.3286C79.0988 46.1451 79.1219 45.82 79.1416 45.6475C79.3713 43.715 80.9378 43.0932 82.7736 43.0932C84.6071 43.0932 86.2122 43.7118 86.4022 45.6475C86.4363 45.977 86.4253 46.3286 86.4253 46.3286V46.6736H83.8184V46.0946C83.8206 46.0957 83.8151 45.8485 83.7843 45.7013C83.7404 45.4728 83.5415 44.9477 82.7538 44.9477C82.0002 44.9477 81.7794 45.4442 81.7244 45.7013C81.6926 45.8375 81.6805 46.0221 81.6805 46.1891V50.9174C81.6783 51.0481 81.686 51.1921 81.7069 51.3107C81.7519 51.5876 82.0123 52.06 82.7604 52.06Z" fill="white"/>
</g>
<defs>
<clipPath id="clip0_3_124">
<rect width="100" height="100" fill="white"/>
</clipPath>
</defs>
</svg>
