<svg width="100" height="100" viewBox="0 0 100 100" fill="none" xmlns="http://www.w3.org/2000/svg">
<g clip-path="url(#clip0_3_135)">
<path d="M35.626 58.6C32 58.6 28.64 57.52 26.4 55.506C25.599 54.7863 24.9608 53.9039 24.5279 52.9179C24.0951 51.9318 23.8776 50.8648 23.89 49.788C23.8875 48.7157 24.1096 47.6547 24.5419 46.6733C24.9741 45.6919 25.6071 44.812 26.4 44.09C28.48 42.2 32.16 41 35.626 41C39.46 41 42.53 41.966 44.876 44.094C45.6658 44.8157 46.2945 45.6959 46.7211 46.677C47.1478 47.6581 47.3627 48.7182 47.352 49.788C47.3467 50.8589 47.1245 51.9176 46.699 52.9003C46.2735 53.883 45.6533 54.7694 44.876 55.506C42.69 57.532 39.258 58.6 35.626 58.6V56.284C37.548 56.284 39.332 55.62 40.578 54.38C41.824 53.14 42.39 51.636 42.39 49.78C42.39 48.008 41.768 46.352 40.578 45.18C39.348 43.97 37.522 43.288 35.626 43.288C33.73 43.288 31.896 43.964 30.666 45.18C29.48 46.354 28.866 48.016 28.866 49.78C28.8482 50.6275 28.9981 51.4702 29.307 52.2596C29.6159 53.049 30.0777 53.7696 30.666 54.38C31.896 55.606 33.718 56.284 35.626 56.284V58.6ZM9.15001 41C7.21201 41 5.01001 41.364 3.15001 42.2C1.41401 42.976 1.23236e-05 44.222 1.23236e-05 46.288C-0.00259581 47.3699 0.40887 48.4118 1.15001 49.2C1.65201 49.664 2.46201 50.452 4.57801 50.916C5.52401 51.116 7.54601 51.438 9.56001 51.65C11.574 51.862 13.526 52.05 14.326 52.264C14.962 52.426 16.032 52.646 16.032 53.846C16.032 55.046 14.906 55.406 14.71 55.484C14.514 55.562 13.162 56.182 10.734 56.182C9.12531 56.1373 7.53123 55.8632 6.00001 55.368C5.09401 55.044 4.14401 54.618 3.25801 53.536C2.90045 53.0265 2.70208 52.4223 2.68801 51.8H0.488012V57.96H2.93201V57.126C2.93163 57.0641 2.94774 57.0033 2.97869 56.9497C3.00964 56.8962 3.0543 56.8518 3.10809 56.8213C3.16188 56.7907 3.22284 56.775 3.2847 56.7759C3.34655 56.7767 3.40707 56.794 3.46001 56.826C4.61146 57.327 5.80916 57.7142 7.03601 57.982C8.32001 58.25 9.15001 58.444 10.746 58.444C12.4301 58.476 14.1086 58.239 15.718 57.742C16.7867 57.4491 17.7895 56.9541 18.672 56.284C19.1684 55.9027 19.5696 55.4115 19.8441 54.849C20.1186 54.2864 20.2589 53.6679 20.254 53.042C20.2624 51.8529 19.8034 50.7081 18.976 49.854C18.5159 49.4075 17.9829 49.0429 17.4 48.776C16.7734 48.4929 16.1228 48.266 15.456 48.098C14.188 47.788 11.34 47.4 9.97801 47.264C8.55001 47.116 6.07201 46.91 5.08201 46.604C4.78201 46.51 4.17001 46.22 4.17001 45.51C4.17001 45.004 4.45001 44.576 5.00201 44.23C5.88001 43.68 7.65201 43.338 9.50001 43.338C11.2888 43.3164 13.0628 43.6629 14.712 44.356C15.1551 44.549 15.5718 44.7977 15.952 45.096C16.5719 45.6254 17.0011 46.3434 17.174 47.14H19.148V41.778H16.948V42.4C16.948 42.6 16.748 42.864 16.348 42.646C15.356 42.13 12.568 41.014 9.15001 41ZM57.448 41.984L68.2 51.686L68.09 45.154C68.078 44.296 67.922 43.938 66.994 43.938H64.974V41.984H74.174V43.938H72.2C71.256 43.938 71.2 44.242 71.184 45.154L71.35 57.636H68.2L55.814 46.584V54.426C55.824 55.28 55.864 55.682 56.742 55.682H58.942V57.636H49.924V55.682H52.036C52.824 55.682 52.792 54.93 52.792 54.382V45.228C52.792 44.628 52.708 43.94 51.472 43.94H49.76V41.984H57.448ZM84.67 55.678C84.8519 55.678 85.0336 55.6667 85.214 55.644C85.3077 55.6159 85.3942 55.5677 85.4675 55.5027C85.5407 55.4378 85.5989 55.3577 85.638 55.268C85.6656 55.129 85.6797 54.9877 85.68 54.846V51.756C85.68 51.652 85.68 51.65 85.548 51.486C85.416 51.322 79.916 45.086 79.666 44.806C79.354 44.466 78.806 43.94 77.972 43.94H76.062V41.984H86.842V43.936H85.542C85.242 43.936 85.042 44.222 85.298 44.536C85.298 44.536 88.926 48.876 88.96 48.922C88.994 48.968 89.024 48.978 89.07 48.936C89.116 48.894 92.788 44.576 92.816 44.536C92.8594 44.479 92.8856 44.4108 92.8913 44.3394C92.8971 44.268 92.8822 44.1965 92.8485 44.1333C92.8148 44.0701 92.7637 44.0179 92.7012 43.983C92.6387 43.948 92.5675 43.9317 92.496 43.936H91.162V41.984H100V43.94H98.026C97.31 43.94 97.026 44.072 96.48 44.68L90.53 51.468C90.4718 51.552 90.4462 51.6544 90.458 51.756V54.844C90.4591 54.9858 90.4738 55.1271 90.502 55.266C90.5405 55.3558 90.5982 55.436 90.6712 55.501C90.7441 55.566 90.8304 55.6141 90.924 55.642C91.103 55.6656 91.2834 55.677 91.464 55.676H93.482V57.632H82.758V55.676L84.67 55.678Z" fill="#003366"/>
</g>
<defs>
<clipPath id="clip0_3_135">
<rect width="100" height="100" fill="white"/>
</clipPath>
</defs>
</svg>
