<svg width="100" height="100" viewBox="0 0 100 100" fill="none" xmlns="http://www.w3.org/2000/svg">
<path fill-rule="evenodd" clip-rule="evenodd" d="M75.149 20.5531C82.7233 20.5531 91.7447 21.3191 94.4681 22.6808C94.4681 24.7234 94.4681 31.617 94.4681 32.2978C94.4681 42 100 43.3617 100 43.3617C100 43.3617 100 47.5319 100 52.2979C100 58.5106 98.6383 62.6808 98.6383 62.6808C95.8297 63.3617 88.9361 65.4042 81.3615 70.9361C75.8297 75.1063 70.9787 81.3191 70.9787 87.5319C70.9787 91.617 71.6595 94.4255 73.1063 97.1489C73.1063 97.1489 70.2978 98.5106 65.4469 98.5106C59.3192 97.8297 52.4256 92.9787 48.2553 85.4042C42.7234 75.7872 40.0001 64.0425 33.7872 64.0425C27.5746 64.0425 27.5746 70.2553 22.7234 70.2553C17.1915 70.2553 13.7871 61.3191 12.4254 57.1489C8.93617 50.9361 0.680927 48.8936 0 39.1915H26.2126C26.2126 24.7234 26.2126 16.4681 26.2126 2C35.8298 2 41.3618 2 50.9787 2V17.8298C51.7446 18.5106 53.7873 19.1915 56.5107 19.8723L53.7872 32.2978H46.2127L43.4041 43.3617H50.9787L48.2553 57.1489C48.2553 59.1914 47.5744 64.0425 48.2553 66.0851C49.617 71.617 53.1063 73.6595 57.8723 73.6595C64.7659 73.6595 70.9787 70.2553 70.9787 70.2553L73.7873 61.3191C72.4256 61.3191 70.2978 61.3191 68.9361 61.3191C67.5744 61.3191 66.2127 61.3191 66.8935 57.8297L70.2978 43.3617H77.8724L80.6809 32.2978H73.1063L75.149 20.5531Z" fill="#BE372F"/>
<path fill-rule="evenodd" clip-rule="evenodd" d="M59.9999 24.7234H69.617L62.0425 60.6383H52.4256L59.9999 24.7234Z" fill="#BE372F"/>
<path fill-rule="evenodd" clip-rule="evenodd" d="M66.8935 11.617C69.617 11.617 72.4255 13.6595 72.4255 17.1489C72.4255 19.8723 69.617 22 66.8935 22C64.0851 22 61.3615 19.8723 61.3615 17.1489C61.3615 13.6595 64.0851 11.617 66.8935 11.617Z" fill="#BE372F"/>
</svg>
