<svg width="100" height="100" viewBox="0 0 100 100" fill="none" xmlns="http://www.w3.org/2000/svg">
<g clip-path="url(#clip0_3_6)">
<path d="M1.00025 69.5991C1.00025 72.1989 3.1773 74.7988 6.14603 74.7988H25.9474V94.8002C25.9474 97.4001 28.1244 100 31.0931 100H48.0234V52.4998H1L1.00025 69.5991ZM63.7645 0.000624986C43.0738 0.000624986 26.5437 16.5996 26.5437 37.0967V44.999H47.3297V37.0967C47.3297 28.1994 54.5575 21.0002 63.7639 21.0002C72.8707 21.0002 79.2085 27.3975 79.2085 36.8967C79.2085 46.299 72.3765 53.1982 63.2653 53.1982H55.4462V74.1921H63.2653C83.5652 74.1921 100 57.4981 100 36.8935C100 15.4997 84.6556 0 63.7639 0" fill="#4ACBD6"/>
</g>
<defs>
<clipPath id="clip0_3_6">
<rect width="100" height="100" fill="white"/>
</clipPath>
</defs>
</svg>
