<svg width="100" height="100" viewBox="0 0 100 100" fill="none" xmlns="http://www.w3.org/2000/svg">
<g clip-path="url(#clip0_3_131)">
<path fill-rule="evenodd" clip-rule="evenodd" d="M96.1915 99.9928H3.7871C1.69046 99.9928 -0.0090332 98.2932 -0.0090332 96.1964V3.78558C-0.0090332 1.68879 1.69046 -0.00985718 3.7871 -0.00985718H96.1915C98.2882 -0.00985718 99.9876 1.68879 99.9876 3.78558V96.1964C99.9876 98.2932 98.2882 99.9928 96.1915 99.9928Z" fill="#FF6700"/>
<path d="M78.402 31.4429H70.5351C70.1982 31.4429 69.9255 31.7109 69.9255 32.041V67.9372C69.9255 68.2645 70.1982 68.5324 70.5351 68.5324H78.402C78.736 68.5324 79.0126 68.2645 79.0126 67.9372V32.041C79.0126 31.7109 78.736 31.4429 78.402 31.4429Z" fill="white"/>
<path d="M51.541 31.4429H21.5746C21.2377 31.4429 20.9669 31.7109 20.9669 32.041V67.9372C20.9669 68.2645 21.2377 68.5324 21.5746 68.5324H29.4435C29.7784 68.5324 30.0559 68.2645 30.0559 67.9372V39.764C30.0559 39.4386 30.3267 39.1688 30.6635 39.1688H47.6137C52.3802 39.1688 53.7333 42.8197 53.7333 45.1749V67.9372C53.7333 68.2645 54.007 68.5324 54.3438 68.5324H62.2079C62.5428 68.5324 62.8175 68.2645 62.8175 67.9372V42.4723C62.8175 40.3717 62.5648 37.3514 59.8548 34.6929C57.0194 31.9176 54.4328 31.4429 51.541 31.4429Z" fill="white"/>
<path d="M46.029 45.7405H37.7678C37.431 45.7405 37.1544 46.0084 37.1544 46.3367V67.94C37.1544 68.2664 37.431 68.5343 37.7678 68.5343H46.029C46.363 68.5343 46.6367 68.2664 46.6367 67.94V46.3367C46.6367 46.0084 46.363 45.7405 46.029 45.7405Z" fill="white"/>
</g>
<defs>
<clipPath id="clip0_3_131">
<rect width="100" height="100" fill="white"/>
</clipPath>
</defs>
</svg>
