<svg width="100" height="100" viewBox="0 0 100 100" fill="none" xmlns="http://www.w3.org/2000/svg">
<path d="M2.87581 74.2769C1.82939 74.1412 0.873964 73.4789 0.386613 72.5515C-0.0826622 71.6585 -0.127684 70.572 0.267717 69.6827C0.338017 69.5247 3.68291 64.2341 7.70086 57.926C11.7188 51.6178 16.4887 44.1288 18.3007 41.2837C20.1127 38.4385 21.6512 35.9728 21.7197 35.8043C21.973 35.1808 21.9166 34.4105 21.5739 33.8115C21.3904 33.4908 20.9467 33.057 20.6442 32.9027C20.1015 32.6258 20.4211 32.636 12.2229 32.635C3.73599 32.635 4.24017 32.6553 3.44417 32.263C2.05072 31.5761 1.31147 29.8896 1.74987 28.3979C1.99509 27.5635 2.6909 26.723 3.4424 26.3535C4.22373 25.9694 3.02955 25.9974 18.0049 26.0125L31.4757 26.026L31.8154 26.1422C32.828 26.4886 33.6561 27.3266 33.9724 28.325C34.0654 28.6184 34.0883 28.8149 34.0883 29.3178C34.0881 30.0027 33.9852 30.4353 33.709 30.9115C33.634 31.0409 28.8234 38.6004 23.0187 47.7106C17.2141 56.8208 12.4192 64.3775 12.3635 64.5033C12.232 64.8004 12.1868 65.454 12.2724 65.8218C12.4353 66.5215 12.9153 67.1144 13.5732 67.4286L13.9712 67.6187L22.619 67.6457C32.2816 67.6759 31.4651 67.6417 32.2856 68.0495C32.8045 68.3073 33.386 68.8812 33.6598 69.4057C34.4686 70.9554 34.0105 72.7902 32.575 73.7503C32.1325 74.0463 31.6966 74.2064 31.1361 74.2791C30.6529 74.3417 3.35914 74.3396 2.87581 74.2766V74.2769ZM74.3068 74.2552C73.8795 74.1772 73.2645 73.9054 72.9194 73.6419C72.5648 73.3711 72.1665 72.8843 71.969 72.4802C71.5999 71.725 71.6295 73.7659 71.6443 50.0335L71.6576 28.5865L71.8002 28.1958C71.9779 27.7089 72.3392 27.174 72.7227 26.83C73.0749 26.514 73.8348 26.1329 74.2668 26.0555C74.4794 26.0175 78.1172 26 85.8454 26C96.8962 26 97.1217 26.0025 97.5175 26.1032C98.1289 26.2596 98.506 26.4831 99.0146 26.9907C99.3569 27.3324 99.5062 27.5288 99.6515 27.8288C100.036 28.6226 100.098 29.5443 99.8224 30.3657C99.6469 30.8885 99.48 31.1676 99.1003 31.5735C98.7051 31.996 98.2583 32.2878 97.7315 32.4674L97.3135 32.6099L89.554 32.6365C82.2042 32.6618 81.7794 32.6682 81.5072 32.7591C80.3535 33.1444 79.4433 34.1016 79.1838 35.2023C79.0671 35.6973 79.0663 43.7317 79.1828 44.2262C79.4628 45.414 80.429 46.3827 81.6434 46.6933C82.0333 46.793 82.2486 46.7964 88.2952 46.7973C95.2768 46.7973 94.93 46.7808 95.7179 47.1693C96.5126 47.5611 97.1576 48.3385 97.4244 49.2261C97.5755 49.7292 97.5531 50.6253 97.376 51.1595C97.0537 52.1314 96.2302 52.9567 95.2494 53.2906L94.9098 53.4062L88.3783 53.4324L81.8467 53.4585L81.3964 53.6198C80.5137 53.9358 79.8473 54.5116 79.4665 55.2874C79.0892 56.0558 79.1035 55.8498 79.1035 60.5413C79.1035 64.5359 79.1087 64.7749 79.2046 65.1496C79.5088 66.3393 80.3926 67.2196 81.6377 67.5733C81.9274 67.6556 82.5073 67.6613 89.2665 67.6491C94.4895 67.6396 96.715 67.6528 97.0472 67.6951C98.5052 67.8811 99.6348 68.9126 99.9222 70.3207C100.026 70.8284 100.026 71.1506 99.9227 71.6507C99.6758 72.8458 98.8554 73.7666 97.6833 74.164L97.2612 74.3072L85.9747 74.3159C76.7715 74.3231 74.6179 74.312 74.3068 74.2552ZM52.1937 74.2449C51.9075 74.1971 51.3659 73.9981 51.0442 73.8226C50.596 73.5782 49.8677 72.8505 49.6202 72.3999C49.5176 72.2131 49.3786 71.8957 49.3114 71.6945L49.1892 71.3288L49.1621 53.3801C49.1373 37.0415 49.1274 35.4073 49.0505 35.1618C48.678 33.9732 47.9549 33.2046 46.8374 32.8097L46.4198 32.6621L42.8667 32.6339C39.6162 32.608 39.2891 32.5975 39.0262 32.5104C37.8474 32.1202 36.9834 31.1934 36.7255 30.0426C36.6447 29.6821 36.6593 28.846 36.7527 28.482C37.0212 27.4355 37.8035 26.5831 38.8694 26.1759L39.2613 26.0261L52.664 26.0111C62.1192 26.0006 66.1667 26.0136 66.4063 26.0529C66.8637 26.1293 67.6114 26.4993 67.9845 26.8339C68.3765 27.1855 68.7594 27.7663 68.9176 28.2494C69.0275 28.585 69.0449 28.7358 69.0441 29.344C69.0433 29.9478 69.0256 30.0984 68.9219 30.3891C68.5723 31.3688 67.7675 32.1561 66.7721 32.4921C66.4395 32.6044 66.3589 32.6074 62.8793 32.6366C58.9249 32.6698 59.1438 32.6498 58.3894 33.0442C57.6408 33.4355 57.0312 34.1792 56.7327 35.0657C56.6744 35.2387 56.6577 38.3653 56.6355 53.2233C56.6102 70.26 56.604 71.1878 56.5154 71.4854C56.1094 72.8493 55.1116 73.8511 53.8339 74.1779C53.4529 74.2753 52.5873 74.3108 52.1937 74.2449Z" fill="#00BFFE"/>
</svg>
